<svg version="1.1" id="Layer_1" xmlns="http://www.w3.org/2000/svg" xmlns:xlink="http://www.w3.org/1999/xlink" x="0px" y="0px"
	 width="100%" viewBox="0 0 1171 489" enable-background="new 0 0 1171 489" xml:space="preserve">
<path fill="#010101" opacity="1.000000" stroke="none" 
	d="
M771.000000,490.000000 
	C690.645203,490.000000 610.290466,490.000000 529.134277,489.728546 
	C528.603577,489.056488 528.792419,488.547211 529.157654,488.272003 
	C533.099121,485.302399 534.460754,481.352539 532.801208,476.803467 
	C531.086792,472.104065 527.138489,470.702942 522.373413,470.801788 
	C516.378113,470.926178 510.363678,470.579498 504.385986,470.926575 
	C500.836304,471.132660 499.071075,469.697083 497.346344,466.838501 
	C482.664764,442.504944 467.823120,418.268066 453.063354,393.981628 
	C431.916168,359.184998 410.802795,324.367828 389.662689,289.566925 
	C385.156647,282.149078 381.876404,281.090027 374.037262,284.591736 
	C364.795502,288.719971 355.700195,293.201294 346.326782,297.000000 
	C341.008759,299.155212 338.281677,302.599213 336.680420,308.000549 
	C333.143341,319.931580 328.994293,331.680176 325.173004,343.528412 
	C323.597656,348.412842 320.154480,353.950134 321.338806,358.116577 
	C322.524506,362.287598 328.374664,365.176392 332.265747,368.527985 
	C375.041931,405.372894 417.850281,442.180542 460.597839,479.058624 
	C464.580688,482.494629 468.207733,486.343079 472.000000,490.000000 
	C462.978577,490.000000 453.957123,490.000000 444.348541,489.780121 
	C443.481964,489.417725 443.202545,489.275208 442.851807,488.798065 
	C394.084259,446.762543 345.384094,405.066284 296.694397,363.357788 
	C282.783569,351.441498 268.917694,339.472687 255.000549,327.563843 
	C250.281296,323.525574 245.495132,322.305145 241.915222,325.256927 
	C232.362717,333.133362 223.184937,341.464264 213.393097,350.020996 
	C220.914230,354.021790 224.601501,360.227997 227.716415,366.974518 
	C242.676605,399.376465 257.746094,431.727966 272.685730,464.139374 
	C276.623718,472.682800 280.237396,481.375732 284.000000,490.000000 
	C277.311859,490.000000 270.623688,490.000000 263.536621,489.624878 
	C263.085999,488.922028 263.106415,488.560913 262.972290,488.271362 
	C244.982651,449.435211 227.014221,410.589081 208.892654,371.814545 
	C207.907318,369.706207 205.972992,367.415100 203.913315,366.532501 
	C184.101730,358.043182 164.188583,349.788910 144.255783,341.585785 
	C139.109665,339.467896 135.187485,340.606842 131.851837,344.831024 
	C102.468376,382.041595 73.111687,419.273315 43.736885,456.490723 
	C40.027229,461.190765 37.134525,467.622528 32.270554,470.018433 
	C27.421108,472.407135 20.566925,470.842651 14.593397,470.795685 
	C9.824098,470.758240 5.199241,470.776215 2.111524,475.302246 
	C2.040735,475.405975 1.383617,475.109680 1.000000,475.000000 
	C1.000000,317.057129 1.000000,159.114227 1.000000,1.000000 
	C244.688080,1.000000 488.376221,1.000000 732.933105,1.227504 
	C728.897705,12.956308 725.290100,25.041576 717.792175,36.002899 
	C720.381165,36.002899 722.384460,36.179268 724.339478,35.947598 
	C725.928711,35.759266 727.459961,35.081726 729.016968,34.621140 
	C727.817810,33.696453 726.618652,32.771763 725.367737,31.807121 
	C728.468384,23.718451 725.261353,24.448359 739.621948,25.371040 
	C740.419983,27.621948 741.240906,29.937511 742.041382,32.195290 
	C740.641846,33.101315 739.336975,33.946033 738.032166,34.790749 
	C738.145874,35.281616 738.259583,35.772484 738.373291,36.263355 
	C741.946716,36.425262 745.519531,36.655106 749.093994,36.682743 
	C749.695557,36.687389 750.639648,35.911789 750.803406,35.323544 
	C750.935608,34.848438 750.183289,34.070721 749.731140,33.500412 
	C748.600891,32.074753 746.965332,30.867807 746.336060,29.258835 
	C743.802795,22.781620 741.500488,16.210251 739.267517,9.621278 
	C738.316040,6.813821 737.744263,3.877675 737.000000,1.000001 
	C881.910461,1.000000 1026.820923,1.000000 1172.000000,1.000000 
	C1172.000000,91.021255 1172.000000,181.042770 1171.686768,271.947754 
	C1169.731812,272.706543 1168.090332,272.473724 1166.448730,272.473083 
	C1118.948975,272.453918 1071.449219,272.452148 1023.949463,272.469696 
	C1020.285339,272.471039 1016.610535,272.485687 1012.959106,272.749664 
	C1000.140808,273.676392 991.661194,280.881226 990.611755,293.387543 
	C989.712341,304.106018 990.425537,314.959839 990.425537,325.975830 
	C993.563232,325.975830 996.591064,325.975830 999.711548,325.975830 
	C1000.143616,322.120087 1000.448853,318.639648 1000.936768,315.184998 
	C1002.334106,305.290161 1006.517761,296.856445 1015.594971,292.112518 
	C1029.871582,284.651306 1045.346313,287.510651 1060.881958,287.166199 
	C1060.881958,354.491241 1060.881958,421.075348 1060.881958,487.672760 
	C1075.163818,487.672760 1089.049438,487.672760 1103.283936,487.672760 
	C1103.283936,420.706360 1103.283936,354.101715 1103.283936,287.000000 
	C1126.424194,287.000000 1149.212158,287.000000 1172.000000,287.000000 
	C1172.000000,354.615875 1172.000000,422.231781 1172.000000,490.000000 
	C1046.311890,490.000000 920.623779,490.000000 794.140381,489.677765 
	C793.512085,489.075409 793.672485,488.555237 793.847229,488.550415 
	C797.881958,488.438019 797.896423,485.780548 797.944580,482.711517 
	C797.998901,479.252838 795.593445,479.562531 793.424927,478.728790 
	C789.438232,477.196014 785.294556,475.574280 781.917297,473.051239 
	C773.265625,466.587860 768.176941,457.381989 764.070496,447.621643 
	C740.753967,392.202545 717.450073,336.778015 694.179382,281.339630 
	C690.514893,272.609680 690.598999,272.734833 681.193970,272.506226 
	C677.408630,272.414185 675.426636,273.354614 673.740601,277.147278 
	C646.011353,339.524994 618.061401,401.804535 590.174988,464.112396 
	C586.687622,471.904449 583.279541,479.732025 579.617371,488.035950 
	C584.611389,488.035950 588.778503,487.854492 592.920288,488.099487 
	C595.698486,488.263824 596.972412,487.201782 598.076050,484.715240 
	C605.756104,467.411530 613.634521,450.195923 621.365112,432.914429 
	C622.536987,430.294830 623.768188,428.775696 627.126099,428.796936 
	C653.608215,428.964600 680.092163,428.936859 706.574890,428.821655 
	C709.381226,428.809479 710.662048,429.725128 711.694702,432.275024 
	C714.747986,439.813995 717.817932,447.371338 721.412292,454.659637 
	C726.013184,463.988831 731.966736,472.377228 740.901611,478.187073 
	C749.128845,483.536774 758.311035,486.280701 767.859985,488.073944 
	C768.987427,488.285675 769.957153,489.337585 771.000000,490.000000 
M848.144897,48.109592 
	C848.299316,48.232071 848.453674,48.354546 848.654175,49.303715 
	C847.643677,56.423477 846.633179,63.543236 845.622681,70.663002 
	C846.155701,71.002792 846.688721,71.342590 847.221741,71.682381 
	C853.905457,66.949875 860.589233,62.217365 867.273010,57.484856 
	C867.537476,57.834099 867.802002,58.183342 868.066467,58.532585 
	C864.872192,63.496597 861.677917,68.460609 859.006531,72.612091 
	C856.427551,72.953850 854.793457,73.170403 853.159363,73.386955 
	C856.186523,76.618217 859.064087,78.599503 862.089905,80.320183 
	C862.836853,80.744911 864.065552,80.322342 865.072815,80.289268 
	C864.656921,79.391891 864.404602,78.342125 863.763977,77.654076 
	C863.376831,77.238304 862.386841,77.383904 861.872070,77.307571 
	C867.472839,68.546089 872.206726,61.140739 876.748291,54.036243 
	C878.869019,54.271950 880.661377,54.471157 882.453735,54.670361 
	C882.575195,54.071693 882.696655,53.473030 882.818115,52.874363 
	C880.222534,51.234623 877.626892,49.594883 875.127747,48.016045 
	C867.047302,53.144848 859.928955,59.134182 851.081116,64.161652 
	C852.229980,55.415897 852.707397,48.287895 854.214844,41.384785 
	C855.475525,35.611115 853.400574,32.745136 846.964294,31.953035 
	C847.884888,33.506821 848.805420,35.060600 849.949097,36.990940 
	C845.414795,44.070198 840.598938,51.589142 836.308228,58.288166 
	C833.816650,58.504066 832.261963,58.638775 830.707336,58.773487 
	C830.645874,59.251919 830.584412,59.730354 830.522949,60.208786 
	C832.580444,61.533962 834.547119,63.043530 836.728333,64.117325 
	C838.104370,64.794708 839.801025,64.820572 841.353882,65.138672 
	C840.663330,63.743233 839.972717,62.347794 839.070984,60.525661 
	C841.780518,56.504246 844.737183,52.115936 848.144897,48.109592 
M829.558960,488.038025 
	C866.547913,488.036682 903.536926,488.046814 940.525879,488.025482 
	C949.239319,488.020447 957.917786,486.206940 962.121399,478.113373 
	C968.494202,465.843414 973.388245,452.805481 978.879761,440.164856 
	C969.799988,435.773590 969.794800,435.771179 966.333923,443.219910 
	C957.425659,462.393280 942.554138,472.760651 921.283630,473.111359 
	C902.628357,473.418945 883.965698,473.281128 865.306274,473.313812 
	C864.356934,473.315460 863.407166,473.069031 862.417114,472.932556 
	C862.417114,443.104553 862.417114,413.568909 862.417114,383.559601 
	C890.752197,383.559601 918.685730,383.559601 946.739319,383.559601 
	C946.739319,378.511292 946.739319,373.941956 946.739319,368.721008 
	C918.419922,368.721008 890.385376,368.721008 862.434631,368.721008 
	C862.434631,341.176086 862.434631,314.288757 862.434631,287.613556 
	C882.654358,287.613556 902.486023,286.867157 922.235291,287.823029 
	C942.070740,288.783081 954.131836,300.418060 954.994995,322.009613 
	C955.135559,325.524933 956.428894,326.803802 959.821350,326.415588 
	C961.426880,326.231873 963.070740,326.384033 964.530151,326.384033 
	C964.530151,314.306000 965.217773,302.664764 964.317627,291.147614 
	C963.566162,281.532562 957.119690,275.677368 947.614319,273.820160 
	C943.402710,272.997253 939.052429,272.519409 934.763855,272.510803 
	C889.110901,272.419128 843.457764,272.451355 797.804626,272.462341 
	C796.526672,272.462646 795.248718,272.605103 793.831787,272.689575 
	C793.831787,275.936890 793.831787,278.851868 793.831787,282.025055 
	C795.083008,282.025055 796.068542,281.995941 797.052002,282.029449 
	C810.291077,282.480774 815.829712,286.872223 818.142578,299.964661 
	C819.262939,306.306946 819.439331,312.876709 819.450867,319.344543 
	C819.547363,373.328369 819.505920,427.312378 819.506042,481.296356 
	C819.506042,483.423431 819.505981,485.550537 819.505981,488.038025 
	C822.947510,488.038025 825.763794,488.038025 829.558960,488.038025 
M224.431793,314.924225 
	C229.167358,311.951996 233.559525,307.983398 238.707932,306.209015 
	C250.457886,302.159485 260.374146,306.706329 269.285248,314.575653 
	C280.873840,324.809448 292.697845,334.776703 304.744324,345.137146 
	C309.596100,330.046509 314.357056,315.393066 319.006714,300.704376 
	C321.016449,294.355408 324.175629,288.823700 329.570465,284.783112 
	C331.616394,283.250793 333.837494,281.952332 336.080475,280.480469 
	C334.421173,278.793518 333.066315,277.331177 331.623199,275.961823 
	C312.303192,257.629089 292.961365,239.319397 273.646820,220.980927 
	C267.061584,214.728485 262.480621,214.910385 256.542877,221.905197 
	C239.633469,241.824814 222.743500,261.760956 205.874466,281.714752 
	C192.454300,297.588989 179.076172,313.498779 165.485168,329.623169 
	C174.441971,333.438934 183.058640,337.269806 191.838135,340.681732 
	C193.192642,341.208130 195.722687,340.307617 196.982742,339.223145 
	C206.064163,331.406708 214.958313,323.372742 224.431793,314.924225 
M525.979004,378.418304 
	C528.479004,377.146790 530.979065,375.875275 532.990479,374.852234 
	C534.951538,375.824493 536.473877,376.579254 537.996216,377.334015 
	C537.277649,373.410004 535.832825,370.449127 534.183350,367.607117 
	C533.808289,366.960785 532.724121,366.725983 531.966309,366.301758 
	C531.700806,367.121674 531.229858,367.942139 531.231934,368.761414 
	C531.233826,369.473969 531.770203,370.185181 532.173462,371.141388 
	C526.012451,374.343506 520.139893,377.395721 514.267334,380.447906 
	C517.609314,371.748779 521.686157,363.974091 525.532959,356.087189 
	C526.277283,354.561127 526.122498,352.596527 526.553223,349.676239 
	C515.996460,355.188477 506.914673,359.930542 498.549957,364.298218 
	C496.694824,362.942352 495.490784,362.062378 494.286743,361.182404 
	C493.946564,361.957947 493.111877,362.962219 493.347443,363.471436 
	C494.740723,366.483551 496.324890,369.414246 497.995331,372.284760 
	C498.286072,372.784332 499.451508,373.242249 499.927582,373.041779 
	C500.455566,372.819397 501.004883,371.772156 500.922394,371.169281 
	C500.778046,370.114624 500.158051,369.125061 499.624634,367.835754 
	C505.956268,364.553253 511.984009,361.428314 518.011780,358.303375 
	C514.987000,366.222382 511.303589,373.255402 507.606079,380.281036 
	C504.412262,386.349701 504.582489,387.487915 510.650940,393.700714 
	C510.501160,390.714264 510.412598,388.948975 510.301361,386.730927 
	C515.093933,384.216034 520.225342,381.523376 525.979004,378.418304 
M711.965088,35.280338 
	C711.875244,34.646278 711.860779,33.479980 711.684570,33.454998 
	C705.025146,32.510910 703.410461,26.161673 699.256042,22.531084 
	C704.337097,17.588114 705.518555,13.472932 703.331055,9.101453 
	C701.317566,5.077766 696.966736,3.358384 690.798828,4.247649 
	C686.761780,4.829687 682.740601,5.521956 678.712341,6.164855 
	C678.620789,6.746992 678.529297,7.329127 678.437744,7.911263 
	C680.196472,8.419246 681.955200,8.927228 683.790344,9.457281 
	C684.763245,16.133820 685.813293,22.851025 686.690552,29.590715 
	C687.064148,32.461052 688.662537,35.912106 684.061340,37.229477 
	C683.825745,37.296928 684.031006,38.904041 684.031006,39.839470 
	C697.528748,38.202946 697.528748,38.202946 697.514648,35.021652 
	C695.898987,35.021652 694.281433,35.021652 692.374634,35.021652 
	C691.888977,31.542982 691.418579,28.173868 690.721313,23.179382 
	C693.213074,24.499607 694.807495,24.955168 695.842041,25.977343 
	C697.722351,27.835266 699.442017,29.914185 700.918457,32.109535 
	C703.568359,36.049953 706.870361,37.732807 711.965088,35.280338 
M548.626831,104.439018 
	C552.893921,105.117004 557.170654,106.335503 561.424377,106.259933 
	C563.783936,106.218018 566.145508,104.080795 568.398071,102.710381 
	C568.722107,102.513245 568.651489,101.209999 568.358948,100.618866 
	C568.166504,100.229996 566.999268,99.846443 566.691528,100.062614 
	C561.298157,103.851685 556.231140,99.755089 551.004150,100.004356 
	C551.284607,92.723328 549.485962,88.696266 545.086853,87.165665 
	C539.677124,85.283432 535.821167,88.054939 532.478210,91.924789 
	C530.304016,94.441727 528.052979,96.900085 526.025146,99.530235 
	C525.520813,100.184341 525.747864,101.402328 525.638733,102.361122 
	C526.479004,102.212303 527.411987,102.242188 528.134827,101.867058 
	C528.943237,101.447548 529.560974,100.660828 530.303711,99.996292 
	C537.171143,105.928535 543.828003,111.678886 550.000671,117.011040 
	C549.828979,119.311821 549.704102,120.985535 549.579224,122.659241 
	C552.383606,121.312904 553.947021,119.813538 555.198608,118.087990 
	C556.746521,115.953850 558.035461,113.631958 559.436340,111.391182 
	C557.790039,112.159088 556.145142,112.930054 554.494690,113.688965 
	C554.365540,113.748367 554.197571,113.723587 553.775208,113.763977 
	C551.914124,112.168198 549.706787,110.617775 547.999329,108.636597 
	C547.350220,107.883476 547.850281,106.139961 548.626831,104.439018 
M612.172363,32.316422 
	C611.481445,31.573200 610.466919,30.069834 610.149780,30.204821 
	C607.106323,31.500193 604.123535,32.976898 601.288391,34.677002 
	C600.905334,34.906715 601.434082,36.656868 601.540588,37.702995 
	C607.681580,36.066097 610.784119,41.710224 615.465820,43.577171 
	C616.425476,43.959873 617.827393,45.100941 617.786987,45.823174 
	C617.509460,50.783527 617.015991,55.741169 616.334412,60.664032 
	C616.121399,62.202698 615.114868,63.631493 614.471558,65.110565 
	C616.239807,64.639160 618.017212,64.198456 619.771545,63.679951 
	C620.399292,63.494423 621.088318,63.243286 621.544678,62.807644 
	C622.502563,61.893230 623.324829,60.836697 624.202759,59.838509 
	C623.004639,59.358326 621.806519,58.878147 620.446594,58.333118 
	C620.790771,54.869682 621.137634,51.379513 621.545898,47.270905 
	C625.322754,49.585255 628.369934,51.452507 630.868530,52.983559 
	C630.417664,54.871540 630.080322,56.284504 629.499634,58.716217 
	C633.057556,57.002979 635.519470,56.023285 637.754700,54.669483 
	C639.265625,53.754417 640.457336,52.312508 641.791870,51.106262 
	C640.337402,50.949699 638.879822,50.816833 637.430298,50.623211 
	C636.948364,50.558830 636.433533,50.426247 636.024963,50.175915 
	C631.929626,47.666443 626.927856,45.856739 624.128845,42.312119 
	C622.523926,40.279663 624.311523,35.381943 624.938538,31.839056 
	C625.353760,29.492767 626.510803,27.286484 627.142334,24.964899 
	C627.355591,24.181110 626.974548,23.235670 626.805664,21.890291 
	C624.326599,23.070152 622.179810,23.892097 620.257996,25.078434 
	C619.026062,25.838938 618.125793,27.136820 617.076843,28.193808 
	C618.454346,28.603775 619.831909,29.013742 621.306458,29.452589 
	C621.126648,31.204741 621.011475,33.024548 620.735107,34.819546 
	C620.471558,36.530716 620.039978,38.216019 619.613220,40.240360 
	C616.652771,38.439228 614.071350,36.969891 611.644348,35.278942 
	C611.295288,35.035740 611.690186,33.724777 612.172363,32.316422 
M546.436401,420.064362 
	C548.851624,418.042450 551.553467,416.275543 553.624451,413.947418 
	C558.457214,408.514465 558.622681,401.681610 554.448242,396.128387 
	C549.886230,390.059479 542.880493,387.952759 536.371338,391.649597 
	C532.434875,393.885315 528.746155,397.079437 525.912170,400.616882 
	C521.169922,406.536194 522.079285,413.209686 527.435547,418.583252 
	C532.316162,423.479675 537.962219,424.050079 546.436401,420.064362 
M577.989746,64.546638 
	C581.569214,69.514389 585.148682,74.482140 588.383606,78.971718 
	C587.675232,81.075905 587.130920,82.692513 586.586670,84.309120 
	C587.037720,84.524940 587.488831,84.740753 587.939880,84.956573 
	C594.232178,80.399544 600.524414,75.842514 606.987061,71.162086 
	C606.183899,68.840187 605.452026,66.724358 604.869812,65.041092 
	C601.198364,69.182358 597.631226,73.205963 593.595642,77.757996 
	C590.506958,73.485161 588.238586,70.347153 585.834045,67.020737 
	C587.910767,65.507980 589.618103,64.264328 590.588196,63.557663 
	C592.652100,64.170586 594.014038,64.575027 595.375854,64.979477 
	C595.008179,63.581654 594.762451,62.135059 594.230164,60.803017 
	C593.871277,59.904930 593.215027,59.053474 592.500244,58.386578 
	C591.400696,57.360714 590.136597,56.511219 588.942261,55.586903 
	C588.739563,57.155052 588.536804,58.723206 588.272278,60.769176 
	C587.133850,61.580647 585.525635,62.726974 583.651184,64.063049 
	C581.432007,60.980789 579.343567,58.080139 576.493652,54.121899 
	C580.791321,52.317516 584.494507,50.687164 588.266846,49.236813 
	C589.116089,48.910294 590.206726,49.211796 591.186279,49.224205 
	C590.905029,48.218498 590.812012,47.100941 590.297058,46.234039 
	C589.576843,45.021484 588.541870,43.995815 587.589111,42.825768 
	C581.236267,47.415554 575.149963,51.751820 569.162781,56.220882 
	C568.468872,56.738838 568.325195,57.993824 567.926453,58.907120 
	C568.896301,58.939053 569.897461,59.131767 570.825745,58.950775 
	C571.536865,58.812141 572.156006,58.201569 572.977356,57.702972 
	C574.643311,59.968742 576.109192,61.962349 577.989746,64.546638 
M899.603577,67.845467 
	C898.063049,66.405708 896.522583,64.965942 894.982056,63.526184 
	C894.441040,63.829609 893.900024,64.133034 893.359009,64.436462 
	C894.080627,66.105400 894.802185,67.774345 895.604370,69.629684 
	C889.701111,75.821205 883.627869,82.191078 877.930298,88.166931 
	C875.719666,87.880943 874.016235,87.660568 872.312805,87.440193 
	C872.185425,87.914574 872.058044,88.388947 871.930725,88.863327 
	C877.650146,94.321831 883.369629,99.780334 888.945984,105.102211 
	C891.368896,103.779945 893.233154,102.762566 894.832764,101.889603 
	C890.000854,99.005966 885.246826,96.168785 880.026917,93.053551 
	C883.689392,89.204254 886.298889,86.461716 889.089844,83.528397 
	C890.933167,85.236465 892.483276,86.672783 893.644775,87.749062 
	C893.289978,89.593369 893.021790,90.987457 892.753601,92.381554 
	C894.187256,91.753815 895.788635,91.351067 897.010986,90.439896 
	C898.454285,89.364082 899.674072,87.927452 900.768555,86.479317 
	C901.128052,86.003601 900.977356,84.927185 900.702881,84.276077 
	C900.560791,83.939110 899.402954,83.606903 899.102112,83.824036 
	C894.734985,86.975662 894.092346,82.397423 891.806763,80.729958 
	C894.464966,77.939529 896.865662,75.419464 899.243652,72.923210 
	C904.089050,76.141716 908.054932,79.738037 907.339722,87.394348 
	C910.127258,84.420334 911.665955,82.778702 913.398315,80.930443 
	C908.788269,76.551933 904.460571,72.441635 899.603577,67.845467 
M536.081726,145.672089 
	C538.755737,141.290710 541.429688,136.909332 544.176575,132.408463 
	C542.571106,130.543060 541.089233,128.821243 539.607300,127.099434 
	C539.085938,127.067108 538.564575,127.034782 538.043213,127.002457 
	C540.800781,133.881470 536.500549,138.104080 533.388062,143.068161 
	C529.923401,140.943817 526.546570,138.873337 523.077820,136.746506 
	C524.314697,134.700195 525.410278,132.887650 526.197266,131.585617 
	C528.172791,131.434586 529.607056,131.324951 531.041382,131.215302 
	C530.865601,130.482483 530.933960,129.392029 530.472839,129.077087 
	C528.145081,127.487419 525.726135,126.005211 523.204224,124.758125 
	C522.880920,124.598236 521.770691,126.029663 521.024963,126.723900 
	C525.267151,129.993225 521.147400,131.959137 519.942444,134.841309 
	C516.609192,132.816971 513.569763,130.971115 510.321442,128.998367 
	C511.787994,126.514664 512.847534,124.253761 514.349426,122.339928 
	C515.359802,121.052368 516.939514,120.165459 518.373535,119.274742 
	C519.165100,118.783096 520.181458,118.653389 521.096497,118.360519 
	C520.463196,117.511787 519.972107,116.476158 519.161987,115.859818 
	C518.055359,115.017899 516.706055,114.495117 515.321777,113.761909 
	C510.822174,121.157555 506.540497,128.194992 502.258850,135.232437 
	C502.679077,135.704163 503.099304,136.175903 503.519531,136.647644 
	C504.998566,135.584259 506.477570,134.520874 508.079712,133.368958 
	C513.324463,136.559906 518.744385,139.801331 524.104004,143.139648 
	C527.229248,145.086273 531.475952,146.316391 530.124268,151.544006 
	C530.093140,151.664383 530.872314,151.994293 531.748352,152.501221 
	C533.107910,150.397659 534.423035,148.362900 536.081726,145.672089 
M503.065399,234.383194 
	C503.724213,235.534241 504.383026,236.685303 505.041840,237.836365 
	C505.568207,237.697021 506.094574,237.557678 506.620941,237.418335 
	C506.809875,233.855881 507.063965,230.294434 507.118988,226.729919 
	C507.127441,226.181229 506.310455,225.425323 505.700073,225.140121 
	C505.373871,224.987717 504.632782,225.580063 504.149567,225.933060 
	C502.467834,227.161575 500.996033,228.962921 499.123291,229.594696 
	C491.280609,232.240540 483.312988,234.514221 475.412262,236.991562 
	C473.987732,237.438232 472.662506,238.201599 470.343475,239.245422 
	C481.913635,246.919037 494.926025,249.418549 504.801666,258.508179 
	C505.171295,254.905350 505.548706,251.960602 505.717133,249.003967 
	C505.753418,248.366638 505.036224,247.686386 504.666138,247.025909 
	C503.929626,247.456100 503.001556,247.735367 502.510406,248.358841 
	C502.017792,248.984085 501.961029,249.952682 501.701294,250.810257 
	C494.075867,247.433014 494.075867,247.433014 495.424164,235.974945 
	C497.661102,235.330368 500.030334,234.647675 503.065399,234.383194 
M482.228638,197.124405 
	C483.380157,194.716370 484.414490,192.240829 485.742889,189.934692 
	C486.250153,189.054077 487.431061,188.561539 488.304993,187.892166 
	C487.413971,187.289719 486.594543,186.488068 485.613708,186.135605 
	C484.406982,185.701965 483.065674,185.642929 481.471069,185.368362 
	C479.641205,192.890701 477.793854,200.259644 476.124847,207.668777 
	C475.943176,208.475296 476.790588,209.513641 477.160675,210.444458 
	C477.825745,209.889252 478.608368,209.424576 479.124390,208.754578 
	C479.694031,208.014999 480.019165,207.087128 480.433624,206.274948 
	C487.945557,208.083130 495.204712,209.806152 502.448853,211.590332 
	C504.389709,212.068359 507.086639,211.847763 506.283722,215.333008 
	C506.179169,215.786926 507.061401,216.660110 507.674500,217.004074 
	C507.967682,217.168533 509.080994,216.644791 509.176544,216.268646 
	C510.192719,212.266983 511.138489,208.243484 511.899597,204.187698 
	C511.967865,203.823868 510.609863,203.192398 509.724182,202.546616 
	C508.884247,204.539047 508.208557,206.141830 507.519897,207.775421 
	C503.479950,206.749664 499.694061,205.788422 495.837311,204.809189 
	C496.454956,202.341980 496.933411,200.430801 497.254456,199.148331 
	C499.082642,198.242935 500.479584,197.551117 501.876526,196.859314 
	C500.559967,196.124603 499.306213,195.223022 497.910767,194.697968 
	C496.213898,194.059509 494.415588,193.619141 492.622589,193.350098 
	C492.061096,193.265854 491.211121,193.889496 490.807312,194.425659 
	C490.565796,194.746338 490.767792,195.921173 491.051941,196.040268 
	C495.966919,198.100006 492.388367,201.075577 492.335266,204.075150 
	C489.326233,203.339813 486.805389,202.425049 484.218964,202.166916 
	C480.945526,201.840240 481.626251,199.951874 482.228638,197.124405 
M486.480286,295.009460 
	C487.939545,295.544189 489.398834,296.078918 491.577576,296.877289 
	C487.233368,300.018127 483.534393,302.692444 480.504578,304.882996 
	C478.543549,303.862793 477.239899,303.184601 475.161346,302.103302 
	C475.716431,305.742432 475.913422,308.220428 476.520813,310.593384 
	C476.917328,312.142395 477.909546,313.538940 478.634888,315.003784 
	C479.196106,313.856171 479.629669,312.617798 480.360260,311.590668 
	C480.912598,310.814117 481.832275,310.292084 482.609192,309.683289 
	C486.009674,307.018494 489.564270,304.528046 492.784851,301.661865 
	C496.566254,298.296509 500.917755,297.803070 504.917633,297.920319 
	C506.260620,300.361176 507.293884,302.239166 508.327179,304.117188 
	C508.892975,303.851227 509.458801,303.585266 510.024597,303.319305 
	C509.370087,299.279572 508.897766,295.197754 507.978119,291.219330 
	C507.567474,289.442963 506.257904,287.874329 505.356354,286.211395 
	C505.166656,287.997498 504.986908,289.784790 504.778137,291.568665 
	C504.740509,291.889923 504.583527,292.197235 504.452454,292.600983 
	C492.780792,295.663086 483.018250,290.376526 472.420959,284.707825 
	C472.830261,287.762573 472.948578,290.199707 473.547211,292.512512 
	C473.889038,293.833008 475.013550,294.950897 475.785645,296.160004 
	C476.410126,294.904388 477.034637,293.648804 477.718109,292.274628 
	C480.321045,293.108704 482.998169,293.966583 486.480286,295.009460 
M522.464355,173.122086 
	C522.927490,172.057358 523.597717,171.028809 523.791870,169.917099 
	C523.964355,168.928940 523.608887,167.848602 523.486450,166.808929 
	C522.580627,167.428864 521.655884,168.023346 520.776672,168.678879 
	C520.292236,169.040054 519.884155,169.503738 519.523010,169.844528 
	C511.164398,166.383911 503.059479,163.028305 494.614868,159.532074 
	C496.688568,156.968628 495.552094,152.178024 500.776489,152.861618 
	C501.161591,152.912018 502.054718,152.063675 502.018738,151.702087 
	C501.951965,151.030792 501.514038,150.039322 500.981873,149.837677 
	C499.314758,149.205978 497.531799,148.880020 495.535553,148.369629 
	C492.150879,156.613266 488.899811,164.531479 485.548370,172.694168 
	C487.361420,173.799377 488.843842,174.850983 490.465149,175.603409 
	C490.967499,175.836563 491.987793,175.421783 492.499207,174.985229 
	C492.788940,174.737930 492.777161,173.527161 492.475861,173.289520 
	C488.130554,169.862091 492.241547,167.354889 493.128418,164.259171 
	C501.524445,167.719589 509.625946,171.058624 517.177979,174.171204 
	C517.652649,176.275269 518.009949,177.859131 518.367310,179.443008 
	C518.876099,179.375046 519.384888,179.307083 519.893677,179.239120 
	C520.650146,177.421570 521.406616,175.604004 522.464355,173.122086 
M785.909851,37.060474 
	C784.004456,38.596306 782.099060,40.132137 780.193665,41.667969 
	C780.220215,42.175488 780.246765,42.683006 780.273254,43.190525 
	C784.698853,43.503483 789.124390,43.816437 793.549988,44.129395 
	C793.549988,43.818787 793.549988,43.508179 793.549988,42.999683 
	C792.339050,42.394444 791.116150,41.783253 789.796326,41.123615 
	C792.266785,32.231621 794.646790,23.664978 797.261353,14.254329 
	C799.999573,15.957656 802.165894,17.135548 804.119446,18.597717 
	C804.991089,19.250130 805.434814,20.474295 806.072754,21.439003 
	C806.696411,20.240763 807.516235,19.098997 807.882629,17.826654 
	C808.182983,16.783697 807.943787,15.585352 807.943787,14.346085 
	C799.431213,12.049966 791.164307,9.820124 782.741455,7.548207 
	C781.902405,9.540952 781.147217,11.012949 780.694275,12.572722 
	C780.519470,13.174695 780.863525,14.116809 781.296082,14.630331 
	C781.532776,14.911331 782.831909,14.844126 782.998840,14.555747 
	C785.787537,9.739409 788.848999,13.516367 792.200195,13.863558 
	C790.070312,21.620108 788.055725,28.957020 785.909851,37.060474 
M645.548645,18.951548 
	C647.227905,18.486574 648.907104,18.021603 650.732727,17.516109 
	C653.175232,25.329252 655.616028,32.725620 657.697083,40.221909 
	C658.022400,41.393509 656.682251,43.009911 656.164978,44.439701 
	C655.866699,45.264130 655.674316,46.126862 655.434265,46.972351 
	C656.163208,47.098660 656.960266,47.480656 657.609497,47.307663 
	C660.649902,46.497463 663.702454,45.670433 666.629089,44.535919 
	C667.417603,44.230251 667.779846,42.825016 668.932800,40.964058 
	C666.232239,41.405972 664.873901,41.628246 663.381409,41.872467 
	C660.723572,33.152229 658.137268,24.666454 655.595154,16.325958 
	C659.525208,13.937198 662.886292,12.858514 665.869324,17.342173 
	C666.317810,16.978540 666.766235,16.614908 667.214722,16.251276 
	C666.449585,13.978518 665.684509,11.705761 664.843811,9.208581 
	C656.043091,11.931441 647.847900,14.466957 639.117432,17.168089 
	C639.926392,19.825449 640.600708,22.040470 641.275085,24.255493 
	C641.723083,24.105738 642.171143,23.955982 642.619202,23.806227 
	C643.320557,22.249691 644.021851,20.693155 645.548645,18.951548 
M485.432373,333.718872 
	C484.746552,334.488617 483.340515,335.457977 483.489716,335.996307 
	C484.615570,340.058777 486.046997,344.036530 487.382996,348.040771 
	C487.978363,348.005585 488.573730,347.970398 489.169128,347.935211 
	C489.330994,346.085541 489.492889,344.235870 489.663605,342.285126 
	C497.941376,339.623993 506.269440,336.946686 513.947754,334.478271 
	C515.862976,335.686646 517.219116,336.542297 518.575317,337.397949 
	C518.479675,335.751251 518.659790,334.029175 518.234436,332.472534 
	C517.143311,328.479187 515.436951,324.629700 514.615906,320.592682 
	C513.519104,315.199768 510.372955,314.815704 504.478424,316.470825 
	C510.633209,319.463715 512.883850,323.893280 513.127502,329.612488 
	C504.526184,332.363434 496.086243,335.062775 487.708252,337.742310 
	C487.000610,336.241180 486.510773,335.202148 485.432373,333.718872 
M821.656128,19.439043 
	C816.948792,23.414066 824.358215,22.409077 823.393372,25.760031 
	C820.429993,32.749763 817.013733,40.807766 813.814392,48.354160 
	C811.690796,48.849754 810.055725,49.231339 808.420654,49.612919 
	C808.472046,50.096272 808.523499,50.579628 808.574951,51.062981 
	C811.143005,52.158806 813.659180,53.410446 816.299438,54.289513 
	C817.781128,54.782887 819.468140,54.660004 821.062622,54.814762 
	C820.242310,53.520008 819.422058,52.225254 818.272705,50.411144 
	C821.503784,42.785629 825.027466,34.469578 828.209351,26.960106 
	C830.604553,26.607700 832.192810,26.374014 833.781128,26.140322 
	C832.587952,25.081177 831.542664,23.736574 830.169312,23.025217 
	C827.682312,21.737013 824.999756,20.826353 821.656128,19.439043 
z"/>
<path fill="#FEFEFE" opacity="1.000000" stroke="none" 
	d="
M1.000000,475.472656 
	C1.383617,475.109680 2.040735,475.405975 2.111524,475.302246 
	C5.199241,470.776215 9.824098,470.758240 14.593397,470.795685 
	C20.566925,470.842651 27.421108,472.407135 32.270554,470.018433 
	C37.134525,467.622528 40.027229,461.190765 43.736885,456.490723 
	C73.111687,419.273315 102.468376,382.041595 131.851837,344.831024 
	C135.187485,340.606842 139.109665,339.467896 144.255783,341.585785 
	C164.188583,349.788910 184.101730,358.043182 203.913315,366.532501 
	C205.972992,367.415100 207.907318,369.706207 208.892654,371.814545 
	C227.014221,410.589081 244.982651,449.435211 262.972290,488.271362 
	C263.106415,488.560913 263.085999,488.922028 263.068848,489.624878 
	C211.312439,490.000000 159.624878,490.000000 107.313461,489.650085 
	C107.245735,488.105133 107.714577,486.859650 108.371361,485.722748 
	C115.518250,473.351288 122.751907,461.029602 129.837006,448.623016 
	C133.048691,442.999084 131.728363,437.050171 126.936394,434.232178 
	C122.060982,431.365112 116.651489,433.239349 113.206657,439.179657 
	C104.038673,454.989014 94.926575,470.830902 85.850594,486.693207 
	C85.305534,487.645844 85.271713,488.890961 85.000000,490.000000 
	C56.999950,490.000000 28.999899,490.000000 1.000000,490.000000 
	C1.000000,485.236450 1.000000,480.590881 1.000000,475.472656 
z"/>
<path fill="#FEFEFE" opacity="1.000000" stroke="none" 
	d="
M284.468658,490.000000 
	C280.237396,481.375732 276.623718,472.682800 272.685730,464.139374 
	C257.746094,431.727966 242.676605,399.376465 227.716415,366.974518 
	C224.601501,360.227997 220.914230,354.021790 213.393097,350.020996 
	C223.184937,341.464264 232.362717,333.133362 241.915222,325.256927 
	C245.495132,322.305145 250.281296,323.525574 255.000549,327.563843 
	C268.917694,339.472687 282.783569,351.441498 296.694397,363.357788 
	C345.384094,405.066284 394.084259,446.762543 442.764587,489.024323 
	C442.748688,489.585205 443.000000,490.000000 443.000000,490.000000 
	C390.312439,490.000000 337.624878,490.000000 284.468658,490.000000 
z"/>
<path fill="#FEFEFE" opacity="1.000000" stroke="none" 
	d="
M472.468658,490.000000 
	C468.207733,486.343079 464.580688,482.494629 460.597839,479.058624 
	C417.850281,442.180542 375.041931,405.372894 332.265747,368.527985 
	C328.374664,365.176392 322.524506,362.287598 321.338806,358.116577 
	C320.154480,353.950134 323.597656,348.412842 325.173004,343.528412 
	C328.994293,331.680176 333.143341,319.931580 336.680420,308.000549 
	C338.281677,302.599213 341.008759,299.155212 346.326782,297.000000 
	C355.700195,293.201294 364.795502,288.719971 374.037262,284.591736 
	C381.876404,281.090027 385.156647,282.149078 389.662689,289.566925 
	C410.802795,324.367828 431.916168,359.184998 453.063354,393.981628 
	C467.823120,418.268066 482.664764,442.504944 497.346344,466.838501 
	C499.071075,469.697083 500.836304,471.132660 504.385986,470.926575 
	C510.363678,470.579498 516.378113,470.926178 522.373413,470.801788 
	C527.138489,470.702942 531.086792,472.104065 532.801208,476.803467 
	C534.460754,481.352539 533.099121,485.302399 529.157654,488.272003 
	C528.792419,488.547211 528.603577,489.056488 528.666443,489.728546 
	C510.312439,490.000000 491.624878,490.000000 472.468658,490.000000 
z"/>
<path fill="#FCFCFC" opacity="1.000000" stroke="none" 
	d="
M771.468628,490.000000 
	C769.957153,489.337585 768.987427,488.285675 767.859985,488.073944 
	C758.311035,486.280701 749.128845,483.536774 740.901611,478.187073 
	C731.966736,472.377228 726.013184,463.988831 721.412292,454.659637 
	C717.817932,447.371338 714.747986,439.813995 711.694702,432.275024 
	C710.662048,429.725128 709.381226,428.809479 706.574890,428.821655 
	C680.092163,428.936859 653.608215,428.964600 627.126099,428.796936 
	C623.768188,428.775696 622.536987,430.294830 621.365112,432.914429 
	C613.634521,450.195923 605.756104,467.411530 598.076050,484.715240 
	C596.972412,487.201782 595.698486,488.263824 592.920288,488.099487 
	C588.778503,487.854492 584.611389,488.035950 579.617371,488.035950 
	C583.279541,479.732025 586.687622,471.904449 590.174988,464.112396 
	C618.061401,401.804535 646.011353,339.524994 673.740601,277.147278 
	C675.426636,273.354614 677.408630,272.414185 681.193970,272.506226 
	C690.598999,272.734833 690.514893,272.609680 694.179382,281.339630 
	C717.450073,336.778015 740.753967,392.202545 764.070496,447.621643 
	C768.176941,457.381989 773.265625,466.587860 781.917297,473.051239 
	C785.294556,475.574280 789.438232,477.196014 793.424927,478.728790 
	C795.593445,479.562531 797.998901,479.252838 797.944580,482.711517 
	C797.896423,485.780548 797.881958,488.438019 793.847229,488.550415 
	C793.672485,488.555237 793.512085,489.075409 793.672485,489.677765 
	C786.645752,490.000000 779.291504,490.000000 771.468628,490.000000 
M689.492371,413.985840 
	C694.053650,413.985840 698.614990,413.985840 703.945740,413.985840 
	C691.910461,385.434052 680.229431,357.722595 668.044922,328.816803 
	C655.113037,357.913635 642.776245,385.671509 630.192139,413.985840 
	C650.251038,413.985840 669.373291,413.985840 689.492371,413.985840 
z"/>
<path fill="#FDFDFD" opacity="1.000000" stroke="none" 
	d="
M1172.000000,286.533875 
	C1149.212158,287.000000 1126.424194,287.000000 1103.283936,287.000000 
	C1103.283936,354.101715 1103.283936,420.706360 1103.283936,487.672760 
	C1089.049438,487.672760 1075.163818,487.672760 1060.881958,487.672760 
	C1060.881958,421.075348 1060.881958,354.491241 1060.881958,287.166199 
	C1045.346313,287.510651 1029.871582,284.651306 1015.594971,292.112518 
	C1006.517761,296.856445 1002.334106,305.290161 1000.936768,315.184998 
	C1000.448853,318.639648 1000.143616,322.120087 999.711548,325.975830 
	C996.591064,325.975830 993.563232,325.975830 990.425537,325.975830 
	C990.425537,314.959839 989.712341,304.106018 990.611755,293.387543 
	C991.661194,280.881226 1000.140808,273.676392 1012.959106,272.749664 
	C1016.610535,272.485687 1020.285339,272.471039 1023.949463,272.469696 
	C1071.449219,272.452148 1118.948975,272.453918 1166.448730,272.473083 
	C1168.090332,272.473724 1169.731812,272.706543 1171.686768,272.415588 
	C1172.000000,276.689240 1172.000000,281.378510 1172.000000,286.533875 
z"/>
<path fill="#040404" opacity="1.000000" stroke="none" 
	d="
M85.468582,490.000000 
	C85.271713,488.890961 85.305534,487.645844 85.850594,486.693207 
	C94.926575,470.830902 104.038673,454.989014 113.206657,439.179657 
	C116.651489,433.239349 122.060982,431.365112 126.936394,434.232178 
	C131.728363,437.050171 133.048691,442.999084 129.837006,448.623016 
	C122.751907,461.029602 115.518250,473.351288 108.371361,485.722748 
	C107.714577,486.859650 107.245735,488.105133 106.844803,489.650085 
	C99.979050,490.000000 92.958107,490.000000 85.468582,490.000000 
z"/>
<path fill="#EEEEEE" opacity="1.000000" stroke="none" 
	d="
M736.600037,1.000001 
	C737.744263,3.877675 738.316040,6.813821 739.267517,9.621278 
	C741.500488,16.210251 743.802795,22.781620 746.336060,29.258835 
	C746.965332,30.867807 748.600891,32.074753 749.731140,33.500412 
	C750.183289,34.070721 750.935608,34.848438 750.803406,35.323544 
	C750.639648,35.911789 749.695557,36.687389 749.093994,36.682743 
	C745.519531,36.655106 741.946716,36.425262 738.373291,36.263355 
	C738.259583,35.772484 738.145874,35.281616 738.032166,34.790749 
	C739.336975,33.946033 740.641846,33.101315 742.041382,32.195290 
	C741.240906,29.937511 740.419983,27.621948 739.621948,25.371040 
	C725.261353,24.448359 728.468384,23.718451 725.367737,31.807121 
	C726.618652,32.771763 727.817810,33.696453 729.016968,34.621140 
	C727.459961,35.081726 725.928711,35.759266 724.339478,35.947598 
	C722.384460,36.179268 720.381165,36.002899 717.792175,36.002899 
	C725.290100,25.041576 728.897705,12.956308 733.400940,1.227504 
	C734.066711,1.000000 735.133362,1.000000 736.600037,1.000001 
M735.120911,12.464361 
	C734.557678,12.272282 733.520752,11.869275 733.498962,11.918300 
	C732.230103,14.767781 731.045227,17.654678 729.668579,20.981882 
	C732.709045,20.981882 735.240112,20.981882 738.117676,20.981882 
	C737.136719,18.171143 736.267395,15.680451 735.120911,12.464361 
z"/>
<path fill="#BFBFBF" opacity="1.000000" stroke="none" 
	d="
M443.250000,490.000000 
	C443.000000,490.000000 442.748688,489.585205 442.835907,489.358948 
	C443.202545,489.275208 443.481964,489.417725 443.880676,489.780121 
	C444.000000,490.000000 443.500000,490.000000 443.250000,490.000000 
z"/>
<path fill="#FCFCFC" opacity="1.000000" stroke="none" 
	d="
M829.069580,488.038025 
	C825.763794,488.038025 822.947510,488.038025 819.505981,488.038025 
	C819.505981,485.550537 819.506042,483.423431 819.506042,481.296356 
	C819.505920,427.312378 819.547363,373.328369 819.450867,319.344543 
	C819.439331,312.876709 819.262939,306.306946 818.142578,299.964661 
	C815.829712,286.872223 810.291077,282.480774 797.052002,282.029449 
	C796.068542,281.995941 795.083008,282.025055 793.831787,282.025055 
	C793.831787,278.851868 793.831787,275.936890 793.831787,272.689575 
	C795.248718,272.605103 796.526672,272.462646 797.804626,272.462341 
	C843.457764,272.451355 889.110901,272.419128 934.763855,272.510803 
	C939.052429,272.519409 943.402710,272.997253 947.614319,273.820160 
	C957.119690,275.677368 963.566162,281.532562 964.317627,291.147614 
	C965.217773,302.664764 964.530151,314.306000 964.530151,326.384033 
	C963.070740,326.384033 961.426880,326.231873 959.821350,326.415588 
	C956.428894,326.803802 955.135559,325.524933 954.994995,322.009613 
	C954.131836,300.418060 942.070740,288.783081 922.235291,287.823029 
	C902.486023,286.867157 882.654358,287.613556 862.434631,287.613556 
	C862.434631,314.288757 862.434631,341.176086 862.434631,368.721008 
	C890.385376,368.721008 918.419922,368.721008 946.739319,368.721008 
	C946.739319,373.941956 946.739319,378.511292 946.739319,383.559601 
	C918.685730,383.559601 890.752197,383.559601 862.417114,383.559601 
	C862.417114,413.568909 862.417114,443.104553 862.417114,472.932556 
	C863.407166,473.069031 864.356934,473.315460 865.306274,473.313812 
	C883.965698,473.281128 902.628357,473.418945 921.283630,473.111359 
	C942.554138,472.760651 957.425659,462.393280 966.333923,443.219910 
	C969.794800,435.771179 969.799988,435.773590 978.879761,440.164856 
	C973.388245,452.805481 968.494202,465.843414 962.121399,478.113373 
	C957.917786,486.206940 949.239319,488.020447 940.525879,488.025482 
	C903.536926,488.046814 866.547913,488.036682 829.069580,488.038025 
z"/>
<path fill="#FEFEFE" opacity="1.000000" stroke="none" 
	d="
M224.171829,315.165985 
	C214.958313,323.372742 206.064163,331.406708 196.982742,339.223145 
	C195.722687,340.307617 193.192642,341.208130 191.838135,340.681732 
	C183.058640,337.269806 174.441971,333.438934 165.485168,329.623169 
	C179.076172,313.498779 192.454300,297.588989 205.874466,281.714752 
	C222.743500,261.760956 239.633469,241.824814 256.542877,221.905197 
	C262.480621,214.910385 267.061584,214.728485 273.646820,220.980927 
	C292.961365,239.319397 312.303192,257.629089 331.623199,275.961823 
	C333.066315,277.331177 334.421173,278.793518 336.080475,280.480469 
	C333.837494,281.952332 331.616394,283.250793 329.570465,284.783112 
	C324.175629,288.823700 321.016449,294.355408 319.006714,300.704376 
	C314.357056,315.393066 309.596100,330.046509 304.744324,345.137146 
	C292.697845,334.776703 280.873840,324.809448 269.285248,314.575653 
	C260.374146,306.706329 250.457886,302.159485 238.707932,306.209015 
	C233.559525,307.983398 229.167358,311.951996 224.171829,315.165985 
z"/>
<path fill="#F0F0F0" opacity="1.000000" stroke="none" 
	d="
M847.693848,47.727623 
	C844.737183,52.115936 841.780518,56.504246 839.070984,60.525661 
	C839.972717,62.347794 840.663330,63.743233 841.353882,65.138680 
	C839.801025,64.820572 838.104370,64.794708 836.728333,64.117325 
	C834.547119,63.043530 832.580444,61.533962 830.522949,60.208786 
	C830.584412,59.730354 830.645874,59.251919 830.707336,58.773487 
	C832.261963,58.638775 833.816650,58.504066 836.308228,58.288166 
	C840.598938,51.589142 845.414795,44.070198 849.949097,36.990940 
	C848.805420,35.060600 847.884888,33.506821 846.964294,31.953035 
	C853.400574,32.745136 855.475525,35.611115 854.214844,41.384785 
	C852.707397,48.287895 852.229980,55.415897 851.081116,64.161652 
	C859.928955,59.134182 867.047302,53.144848 875.127747,48.016045 
	C877.626892,49.594883 880.222534,51.234623 882.818115,52.874363 
	C882.696655,53.473030 882.575195,54.071693 882.453735,54.670361 
	C880.661377,54.471157 878.869019,54.271950 876.748291,54.036243 
	C872.206726,61.140739 867.472839,68.546089 861.872070,77.307571 
	C862.386841,77.383904 863.376831,77.238304 863.763977,77.654076 
	C864.404602,78.342125 864.656921,79.391891 865.072815,80.289268 
	C864.065552,80.322342 862.836853,80.744911 862.089905,80.320183 
	C859.064087,78.599503 856.186523,76.618217 853.159363,73.386955 
	C854.793457,73.170403 856.427551,72.953850 859.006531,72.612091 
	C861.677917,68.460609 864.872192,63.496597 868.066467,58.532585 
	C867.802002,58.183342 867.537476,57.834099 867.273010,57.484856 
	C860.589233,62.217365 853.905457,66.949875 847.221741,71.682381 
	C846.688721,71.342590 846.155701,71.002792 845.622681,70.663002 
	C846.633179,63.543236 847.643677,56.423477 848.755859,48.611671 
	C848.822449,47.343754 848.787476,46.767876 848.706055,45.428528 
	C848.161499,46.665508 847.927673,47.196564 847.693848,47.727623 
z"/>
<path fill="#EFEFEF" opacity="1.000000" stroke="none" 
	d="
M525.667847,378.624512 
	C520.225342,381.523376 515.093933,384.216034 510.301361,386.730927 
	C510.412598,388.948975 510.501160,390.714264 510.650940,393.700714 
	C504.582489,387.487915 504.412262,386.349701 507.606079,380.281036 
	C511.303589,373.255402 514.987000,366.222382 518.011780,358.303375 
	C511.984009,361.428314 505.956268,364.553253 499.624634,367.835754 
	C500.158051,369.125061 500.778046,370.114624 500.922394,371.169281 
	C501.004883,371.772156 500.455566,372.819397 499.927582,373.041779 
	C499.451508,373.242249 498.286072,372.784332 497.995331,372.284760 
	C496.324890,369.414246 494.740723,366.483551 493.347443,363.471436 
	C493.111877,362.962219 493.946564,361.957947 494.286743,361.182404 
	C495.490784,362.062378 496.694824,362.942352 498.549957,364.298218 
	C506.914673,359.930542 515.996460,355.188477 526.553223,349.676239 
	C526.122498,352.596527 526.277283,354.561127 525.532959,356.087189 
	C521.686157,363.974091 517.609314,371.748779 514.267334,380.447906 
	C520.139893,377.395721 526.012451,374.343506 532.173462,371.141388 
	C531.770203,370.185181 531.233826,369.473969 531.231934,368.761414 
	C531.229858,367.942139 531.700806,367.121674 531.966309,366.301758 
	C532.724121,366.725983 533.808289,366.960785 534.183350,367.607117 
	C535.832825,370.449127 537.277649,373.410004 537.996216,377.334015 
	C536.473877,376.579254 534.951538,375.824493 532.990479,374.852234 
	C530.979065,375.875275 528.479004,377.146790 525.667847,378.624512 
z"/>
<path fill="#F2F2F2" opacity="1.000000" stroke="none" 
	d="
M711.739502,35.611755 
	C706.870361,37.732807 703.568359,36.049953 700.918457,32.109535 
	C699.442017,29.914185 697.722351,27.835266 695.842041,25.977343 
	C694.807495,24.955168 693.213074,24.499607 690.721313,23.179382 
	C691.418579,28.173868 691.888977,31.542982 692.374634,35.021652 
	C694.281433,35.021652 695.898987,35.021652 697.514648,35.021652 
	C697.528748,38.202946 697.528748,38.202946 684.031006,39.839470 
	C684.031006,38.904041 683.825745,37.296928 684.061340,37.229477 
	C688.662537,35.912106 687.064148,32.461052 686.690552,29.590715 
	C685.813293,22.851025 684.763245,16.133820 683.790344,9.457281 
	C681.955200,8.927228 680.196472,8.419246 678.437744,7.911263 
	C678.529297,7.329127 678.620789,6.746992 678.712341,6.164855 
	C682.740601,5.521956 686.761780,4.829687 690.798828,4.247649 
	C696.966736,3.358384 701.317566,5.077766 703.331055,9.101453 
	C705.518555,13.472932 704.337097,17.588114 699.256042,22.531084 
	C703.410461,26.161673 705.025146,32.510910 711.684570,33.454998 
	C711.860779,33.479980 711.875244,34.646278 711.739502,35.611755 
M693.993591,8.013063 
	C692.386536,8.013063 690.779419,8.013063 688.633362,8.013063 
	C689.267700,12.648001 689.827759,16.740454 690.387756,20.832907 
	C690.895630,21.182951 691.403503,21.532993 691.911377,21.883038 
	C694.268311,19.776703 697.538391,18.086037 698.737183,15.452499 
	C700.058289,12.550485 698.611267,9.262919 693.993591,8.013063 
z"/>
<path fill="#F3F3F3" opacity="1.000000" stroke="none" 
	d="
M548.226746,104.643425 
	C547.850281,106.139961 547.350220,107.883476 547.999329,108.636597 
	C549.706787,110.617775 551.914124,112.168198 553.775208,113.763977 
	C554.197571,113.723587 554.365540,113.748367 554.494690,113.688965 
	C556.145142,112.930054 557.790039,112.159088 559.436340,111.391190 
	C558.035461,113.631958 556.746521,115.953850 555.198608,118.087990 
	C553.947021,119.813538 552.383606,121.312904 549.579224,122.659241 
	C549.704102,120.985535 549.828979,119.311821 550.000671,117.011040 
	C543.828003,111.678886 537.171143,105.928535 530.303711,99.996292 
	C529.560974,100.660828 528.943237,101.447548 528.134827,101.867058 
	C527.411987,102.242188 526.479004,102.212303 525.638733,102.361122 
	C525.747864,101.402328 525.520813,100.184341 526.025146,99.530235 
	C528.052979,96.900085 530.304016,94.441727 532.478210,91.924789 
	C535.821167,88.054939 539.677124,85.283432 545.086853,87.165665 
	C549.485962,88.696266 551.284607,92.723328 551.004150,100.004356 
	C556.231140,99.755089 561.298157,103.851685 566.691528,100.062614 
	C566.999268,99.846443 568.166504,100.229996 568.358948,100.618866 
	C568.651489,101.209999 568.722107,102.513245 568.398071,102.710381 
	C566.145508,104.080795 563.783936,106.218018 561.424377,106.259933 
	C557.170654,106.335503 552.893921,105.117004 548.226746,104.643425 
M534.296692,97.016655 
	C537.260010,99.520592 540.223328,102.024529 543.296387,104.621201 
	C545.677307,101.241379 548.419312,98.615585 545.976868,94.739464 
	C542.771973,89.653313 538.214600,90.299911 534.296692,97.016655 
z"/>
<path fill="#EEEEEE" opacity="1.000000" stroke="none" 
	d="
M611.956543,32.612190 
	C611.690186,33.724777 611.295288,35.035740 611.644348,35.278942 
	C614.071350,36.969891 616.652771,38.439228 619.613220,40.240360 
	C620.039978,38.216019 620.471558,36.530716 620.735107,34.819546 
	C621.011475,33.024548 621.126648,31.204741 621.306458,29.452589 
	C619.831909,29.013742 618.454346,28.603775 617.076843,28.193806 
	C618.125793,27.136820 619.026062,25.838938 620.257996,25.078434 
	C622.179810,23.892097 624.326599,23.070152 626.805664,21.890291 
	C626.974548,23.235670 627.355591,24.181110 627.142334,24.964899 
	C626.510803,27.286484 625.353760,29.492767 624.938538,31.839056 
	C624.311523,35.381943 622.523926,40.279663 624.128845,42.312119 
	C626.927856,45.856739 631.929626,47.666443 636.024963,50.175915 
	C636.433533,50.426247 636.948364,50.558830 637.430298,50.623211 
	C638.879822,50.816833 640.337402,50.949699 641.791870,51.106262 
	C640.457336,52.312508 639.265625,53.754417 637.754700,54.669483 
	C635.519470,56.023285 633.057556,57.002979 629.499634,58.716217 
	C630.080322,56.284504 630.417664,54.871540 630.868530,52.983559 
	C628.369934,51.452507 625.322754,49.585255 621.545898,47.270905 
	C621.137634,51.379513 620.790771,54.869682 620.446594,58.333118 
	C621.806519,58.878147 623.004639,59.358326 624.202759,59.838505 
	C623.324829,60.836697 622.502563,61.893230 621.544678,62.807644 
	C621.088318,63.243286 620.399292,63.494423 619.771545,63.679951 
	C618.017212,64.198456 616.239807,64.639160 614.471558,65.110573 
	C615.114868,63.631493 616.121399,62.202698 616.334412,60.664032 
	C617.015991,55.741169 617.509460,50.783527 617.786987,45.823174 
	C617.827393,45.100941 616.425476,43.959873 615.465820,43.577171 
	C610.784119,41.710224 607.681580,36.066097 601.540588,37.702995 
	C601.434082,36.656868 600.905334,34.906715 601.288391,34.677002 
	C604.123535,32.976898 607.106323,31.500193 610.149780,30.204821 
	C610.466919,30.069834 611.481445,31.573200 611.956543,32.612190 
z"/>
<path fill="#F2F2F2" opacity="1.000000" stroke="none" 
	d="
M546.107361,420.250305 
	C537.962219,424.050079 532.316162,423.479675 527.435547,418.583252 
	C522.079285,413.209686 521.169922,406.536194 525.912170,400.616882 
	C528.746155,397.079437 532.434875,393.885315 536.371338,391.649597 
	C542.880493,387.952759 549.886230,390.059479 554.448242,396.128387 
	C558.622681,401.681610 558.457214,408.514465 553.624451,413.947418 
	C551.553467,416.275543 548.851624,418.042450 546.107361,420.250305 
M549.065674,396.033447 
	C541.622986,392.756287 531.474304,398.258667 528.524414,407.170502 
	C526.426880,413.507233 530.318665,418.616577 537.003845,418.161530 
	C542.816650,417.765930 546.618286,413.989319 549.973328,409.809387 
	C553.938721,404.869080 553.757202,401.671936 549.065674,396.033447 
z"/>
<path fill="#F0F0F0" opacity="1.000000" stroke="none" 
	d="
M577.782410,64.251297 
	C576.109192,61.962349 574.643311,59.968742 572.977356,57.702972 
	C572.156006,58.201569 571.536865,58.812141 570.825745,58.950775 
	C569.897461,59.131767 568.896301,58.939053 567.926453,58.907116 
	C568.325195,57.993824 568.468872,56.738838 569.162781,56.220882 
	C575.149963,51.751820 581.236267,47.415554 587.589111,42.825768 
	C588.541870,43.995815 589.576843,45.021484 590.297058,46.234039 
	C590.812012,47.100941 590.905029,48.218498 591.186279,49.224205 
	C590.206726,49.211796 589.116089,48.910294 588.266846,49.236813 
	C584.494507,50.687164 580.791321,52.317516 576.493652,54.121899 
	C579.343567,58.080139 581.432007,60.980789 583.651184,64.063049 
	C585.525635,62.726974 587.133850,61.580647 588.272278,60.769176 
	C588.536804,58.723206 588.739563,57.155052 588.942261,55.586903 
	C590.136597,56.511219 591.400696,57.360714 592.500244,58.386578 
	C593.215027,59.053474 593.871277,59.904930 594.230164,60.803017 
	C594.762451,62.135059 595.008179,63.581654 595.375854,64.979469 
	C594.014038,64.575027 592.652100,64.170586 590.588196,63.557663 
	C589.618103,64.264328 587.910767,65.507980 585.834045,67.020737 
	C588.238586,70.347153 590.506958,73.485161 593.595642,77.757996 
	C597.631226,73.205963 601.198364,69.182358 604.869812,65.041092 
	C605.452026,66.724358 606.183899,68.840187 606.987061,71.162086 
	C600.524414,75.842514 594.232178,80.399544 587.939880,84.956573 
	C587.488831,84.740753 587.037720,84.524940 586.586670,84.309120 
	C587.130920,82.692513 587.675232,81.075905 588.383606,78.971718 
	C585.148682,74.482140 581.569214,69.514389 577.782410,64.251297 
z"/>
<path fill="#F0F0F0" opacity="1.000000" stroke="none" 
	d="
M899.868286,68.088394 
	C904.460571,72.441635 908.788269,76.551933 913.398315,80.930443 
	C911.665955,82.778702 910.127258,84.420334 907.339722,87.394348 
	C908.054932,79.738037 904.089050,76.141716 899.243652,72.923210 
	C896.865662,75.419464 894.464966,77.939529 891.806763,80.729958 
	C894.092346,82.397423 894.734985,86.975662 899.102112,83.824036 
	C899.402954,83.606903 900.560791,83.939110 900.702881,84.276077 
	C900.977356,84.927185 901.128052,86.003601 900.768555,86.479317 
	C899.674072,87.927452 898.454285,89.364082 897.010986,90.439896 
	C895.788635,91.351067 894.187256,91.753815 892.753601,92.381546 
	C893.021790,90.987457 893.289978,89.593369 893.644775,87.749062 
	C892.483276,86.672783 890.933167,85.236465 889.089844,83.528397 
	C886.298889,86.461716 883.689392,89.204254 880.026917,93.053551 
	C885.246826,96.168785 890.000854,99.005966 894.832764,101.889603 
	C893.233154,102.762566 891.368896,103.779945 888.945984,105.102211 
	C883.369629,99.780334 877.650146,94.321831 871.930725,88.863327 
	C872.058044,88.388947 872.185425,87.914574 872.312805,87.440193 
	C874.016235,87.660568 875.719666,87.880943 877.930298,88.166931 
	C883.627869,82.191078 889.701111,75.821205 895.604370,69.629684 
	C894.802185,67.774345 894.080627,66.105400 893.359009,64.436462 
	C893.900024,64.133034 894.441040,63.829609 894.982056,63.526184 
	C896.522583,64.965942 898.063049,66.405708 899.868286,68.088394 
z"/>
<path fill="#F0F0F0" opacity="1.000000" stroke="none" 
	d="
M535.909912,146.000122 
	C534.423035,148.362900 533.107910,150.397659 531.748352,152.501221 
	C530.872314,151.994293 530.093140,151.664383 530.124268,151.544006 
	C531.475952,146.316391 527.229248,145.086273 524.104004,143.139648 
	C518.744385,139.801331 513.324463,136.559906 508.079712,133.368958 
	C506.477570,134.520874 504.998566,135.584259 503.519531,136.647644 
	C503.099304,136.175903 502.679077,135.704163 502.258850,135.232437 
	C506.540497,128.194992 510.822174,121.157555 515.321777,113.761909 
	C516.706055,114.495117 518.055359,115.017899 519.161987,115.859818 
	C519.972107,116.476158 520.463196,117.511787 521.096497,118.360519 
	C520.181458,118.653389 519.165100,118.783096 518.373535,119.274742 
	C516.939514,120.165459 515.359802,121.052368 514.349426,122.339928 
	C512.847534,124.253761 511.787994,126.514664 510.321442,128.998367 
	C513.569763,130.971115 516.609192,132.816971 519.942444,134.841309 
	C521.147400,131.959137 525.267151,129.993225 521.024963,126.723907 
	C521.770691,126.029663 522.880920,124.598236 523.204224,124.758125 
	C525.726135,126.005211 528.145081,127.487419 530.472839,129.077087 
	C530.933960,129.392029 530.865601,130.482483 531.041382,131.215302 
	C529.607056,131.324951 528.172791,131.434586 526.197266,131.585617 
	C525.410278,132.887650 524.314697,134.700195 523.077820,136.746506 
	C526.546570,138.873337 529.923401,140.943817 533.388062,143.068161 
	C536.500549,138.104080 540.800781,133.881470 538.043213,127.002457 
	C538.564575,127.034782 539.085938,127.067108 539.607300,127.099434 
	C541.089233,128.821243 542.571106,130.543060 544.176575,132.408463 
	C541.429688,136.909332 538.755737,141.290710 535.909912,146.000122 
z"/>
<path fill="#EEEEEE" opacity="1.000000" stroke="none" 
	d="
M502.732483,234.174072 
	C500.030334,234.647675 497.661102,235.330368 495.424164,235.974945 
	C494.075867,247.433014 494.075867,247.433014 501.701294,250.810257 
	C501.961029,249.952682 502.017792,248.984085 502.510406,248.358841 
	C503.001556,247.735367 503.929626,247.456100 504.666138,247.025909 
	C505.036224,247.686386 505.753418,248.366638 505.717133,249.003967 
	C505.548706,251.960602 505.171295,254.905350 504.801666,258.508179 
	C494.926025,249.418549 481.913635,246.919037 470.343475,239.245422 
	C472.662506,238.201599 473.987732,237.438232 475.412262,236.991562 
	C483.312988,234.514221 491.280609,232.240540 499.123291,229.594696 
	C500.996033,228.962921 502.467834,227.161575 504.149567,225.933060 
	C504.632782,225.580063 505.373871,224.987717 505.700073,225.140121 
	C506.310455,225.425323 507.127441,226.181229 507.118988,226.729919 
	C507.063965,230.294434 506.809875,233.855881 506.620941,237.418335 
	C506.094574,237.557678 505.568207,237.697021 505.041840,237.836365 
	C504.383026,236.685303 503.724213,235.534241 502.732483,234.174072 
M491.135834,242.767471 
	C491.252930,241.014404 491.369995,239.261322 491.515900,237.076141 
	C487.641632,238.274582 484.342010,239.295288 480.079071,240.613968 
	C483.680420,242.367279 486.288788,243.744415 489.006561,244.853683 
	C489.454285,245.036423 490.381653,244.044022 491.135834,242.767471 
z"/>
<path fill="#F0F0F0" opacity="1.000000" stroke="none" 
	d="
M482.148987,197.546906 
	C481.626251,199.951874 480.945526,201.840240 484.218964,202.166916 
	C486.805389,202.425049 489.326233,203.339813 492.335266,204.075150 
	C492.388367,201.075577 495.966919,198.100006 491.051941,196.040268 
	C490.767792,195.921173 490.565796,194.746338 490.807312,194.425659 
	C491.211121,193.889496 492.061096,193.265854 492.622589,193.350098 
	C494.415588,193.619141 496.213898,194.059509 497.910767,194.697968 
	C499.306213,195.223022 500.559967,196.124603 501.876526,196.859314 
	C500.479584,197.551117 499.082642,198.242935 497.254456,199.148331 
	C496.933411,200.430801 496.454956,202.341980 495.837311,204.809189 
	C499.694061,205.788422 503.479950,206.749664 507.519897,207.775421 
	C508.208557,206.141830 508.884247,204.539047 509.724182,202.546616 
	C510.609863,203.192398 511.967865,203.823868 511.899597,204.187698 
	C511.138489,208.243484 510.192719,212.266983 509.176544,216.268646 
	C509.080994,216.644791 507.967682,217.168533 507.674500,217.004074 
	C507.061401,216.660110 506.179169,215.786926 506.283722,215.333008 
	C507.086639,211.847763 504.389709,212.068359 502.448853,211.590332 
	C495.204712,209.806152 487.945557,208.083130 480.433624,206.274948 
	C480.019165,207.087128 479.694031,208.014999 479.124390,208.754578 
	C478.608368,209.424576 477.825745,209.889252 477.160675,210.444458 
	C476.790588,209.513641 475.943176,208.475296 476.124847,207.668777 
	C477.793854,200.259644 479.641205,192.890701 481.471069,185.368362 
	C483.065674,185.642929 484.406982,185.701965 485.613708,186.135605 
	C486.594543,186.488068 487.413971,187.289719 488.304993,187.892166 
	C487.431061,188.561539 486.250153,189.054077 485.742889,189.934692 
	C484.414490,192.240829 483.380157,194.716370 482.148987,197.546906 
z"/>
<path fill="#EFEFEF" opacity="1.000000" stroke="none" 
	d="
M486.077820,294.916931 
	C482.998169,293.966583 480.321045,293.108704 477.718109,292.274628 
	C477.034637,293.648804 476.410126,294.904388 475.785645,296.160004 
	C475.013550,294.950897 473.889038,293.833008 473.547211,292.512512 
	C472.948578,290.199707 472.830261,287.762573 472.420959,284.707825 
	C483.018250,290.376526 492.780792,295.663086 504.452454,292.600983 
	C504.583527,292.197235 504.740509,291.889923 504.778137,291.568665 
	C504.986908,289.784790 505.166656,287.997498 505.356323,286.211395 
	C506.257904,287.874329 507.567474,289.442963 507.978119,291.219330 
	C508.897766,295.197754 509.370087,299.279572 510.024597,303.319305 
	C509.458801,303.585266 508.892975,303.851227 508.327179,304.117188 
	C507.293884,302.239166 506.260620,300.361176 504.917633,297.920319 
	C500.917755,297.803070 496.566254,298.296509 492.784851,301.661865 
	C489.564270,304.528046 486.009674,307.018494 482.609192,309.683289 
	C481.832275,310.292084 480.912598,310.814117 480.360260,311.590668 
	C479.629669,312.617798 479.196106,313.856171 478.634888,315.003784 
	C477.909546,313.538940 476.917328,312.142395 476.520813,310.593384 
	C475.913422,308.220428 475.716431,305.742432 475.161346,302.103302 
	C477.239899,303.184601 478.543549,303.862793 480.504578,304.882996 
	C483.534393,302.692444 487.233368,300.018127 491.577576,296.877289 
	C489.398834,296.078918 487.939545,295.544189 486.077820,294.916931 
z"/>
<path fill="#F0F0F0" opacity="1.000000" stroke="none" 
	d="
M522.313721,173.454269 
	C521.406616,175.604004 520.650146,177.421570 519.893677,179.239120 
	C519.384888,179.307083 518.876099,179.375046 518.367310,179.443008 
	C518.009949,177.859131 517.652649,176.275269 517.177979,174.171204 
	C509.625946,171.058624 501.524445,167.719589 493.128418,164.259171 
	C492.241547,167.354889 488.130554,169.862091 492.475861,173.289520 
	C492.777161,173.527161 492.788940,174.737930 492.499207,174.985229 
	C491.987793,175.421783 490.967499,175.836563 490.465149,175.603409 
	C488.843842,174.850983 487.361420,173.799377 485.548370,172.694168 
	C488.899811,164.531479 492.150879,156.613266 495.535553,148.369629 
	C497.531799,148.880020 499.314758,149.205978 500.981873,149.837677 
	C501.514038,150.039322 501.951965,151.030792 502.018738,151.702087 
	C502.054718,152.063675 501.161591,152.912018 500.776489,152.861618 
	C495.552094,152.178024 496.688568,156.968628 494.614868,159.532074 
	C503.059479,163.028305 511.164398,166.383911 519.523010,169.844528 
	C519.884155,169.503738 520.292236,169.040054 520.776672,168.678879 
	C521.655884,168.023346 522.580627,167.428864 523.486450,166.808929 
	C523.608887,167.848602 523.964355,168.928940 523.791870,169.917099 
	C523.597717,171.028809 522.927490,172.057358 522.313721,173.454269 
z"/>
<path fill="#EEEEEE" opacity="1.000000" stroke="none" 
	d="
M785.975464,36.677200 
	C788.055725,28.957020 790.070312,21.620108 792.200195,13.863558 
	C788.848999,13.516367 785.787537,9.739409 782.998840,14.555747 
	C782.831909,14.844126 781.532776,14.911331 781.296082,14.630331 
	C780.863525,14.116809 780.519470,13.174695 780.694275,12.572722 
	C781.147217,11.012949 781.902405,9.540952 782.741455,7.548207 
	C791.164307,9.820124 799.431213,12.049966 807.943787,14.346085 
	C807.943787,15.585352 808.182983,16.783697 807.882629,17.826654 
	C807.516235,19.098997 806.696411,20.240763 806.072754,21.438988 
	C805.434814,20.474295 804.991089,19.250130 804.119446,18.597717 
	C802.165894,17.135548 799.999573,15.957656 797.261353,14.254329 
	C794.646790,23.664978 792.266785,32.231621 789.796326,41.123615 
	C791.116150,41.783253 792.339050,42.394444 793.549988,42.999683 
	C793.549988,43.508179 793.549988,43.818787 793.549988,44.129395 
	C789.124390,43.816437 784.698853,43.503483 780.273254,43.190525 
	C780.246765,42.683006 780.220215,42.175488 780.193665,41.667969 
	C782.099060,40.132137 784.004456,38.596306 785.975464,36.677200 
z"/>
<path fill="#F0F0F0" opacity="1.000000" stroke="none" 
	d="
M645.135925,19.044083 
	C644.021851,20.693155 643.320557,22.249691 642.619202,23.806227 
	C642.171143,23.955982 641.723083,24.105738 641.275085,24.255493 
	C640.600708,22.040470 639.926392,19.825449 639.117432,17.168089 
	C647.847900,14.466957 656.043091,11.931441 664.843811,9.208581 
	C665.684509,11.705761 666.449585,13.978518 667.214722,16.251276 
	C666.766235,16.614908 666.317810,16.978540 665.869324,17.342173 
	C662.886292,12.858514 659.525208,13.937198 655.595154,16.325958 
	C658.137268,24.666454 660.723572,33.152229 663.381409,41.872467 
	C664.873901,41.628246 666.232239,41.405972 668.932800,40.964058 
	C667.779846,42.825016 667.417603,44.230251 666.629089,44.535919 
	C663.702454,45.670433 660.649902,46.497463 657.609497,47.307663 
	C656.960266,47.480656 656.163208,47.098660 655.434265,46.972351 
	C655.674316,46.126862 655.866699,45.264130 656.164978,44.439701 
	C656.682251,43.009911 658.022400,41.393509 657.697083,40.221909 
	C655.616028,32.725620 653.175232,25.329252 650.732727,17.516109 
	C648.907104,18.021603 647.227905,18.486574 645.135925,19.044083 
z"/>
<path fill="#F0F0F0" opacity="1.000000" stroke="none" 
	d="
M485.726654,333.940979 
	C486.510773,335.202148 487.000610,336.241180 487.708252,337.742310 
	C496.086243,335.062775 504.526184,332.363434 513.127502,329.612488 
	C512.883850,323.893280 510.633209,319.463715 504.478424,316.470825 
	C510.372955,314.815704 513.519104,315.199768 514.615906,320.592682 
	C515.436951,324.629700 517.143311,328.479187 518.234436,332.472534 
	C518.659790,334.029175 518.479675,335.751251 518.575317,337.397949 
	C517.219116,336.542297 515.862976,335.686646 513.947754,334.478271 
	C506.269440,336.946686 497.941376,339.623993 489.663605,342.285126 
	C489.492889,344.235870 489.330994,346.085541 489.169128,347.935211 
	C488.573730,347.970398 487.978363,348.005585 487.382996,348.040771 
	C486.046997,344.036530 484.615570,340.058777 483.489716,335.996307 
	C483.340515,335.457977 484.746552,334.488617 485.726654,333.940979 
z"/>
<path fill="#F0F0F0" opacity="1.000000" stroke="none" 
	d="
M822.027466,19.598560 
	C824.999756,20.826353 827.682312,21.737013 830.169312,23.025217 
	C831.542664,23.736574 832.587952,25.081177 833.781128,26.140324 
	C832.192810,26.374014 830.604553,26.607700 828.209351,26.960106 
	C825.027466,34.469578 821.503784,42.785629 818.272705,50.411144 
	C819.422058,52.225254 820.242310,53.520008 821.062622,54.814766 
	C819.468140,54.660004 817.781128,54.782887 816.299438,54.289513 
	C813.659180,53.410446 811.143005,52.158806 808.574951,51.062981 
	C808.523499,50.579628 808.472046,50.096272 808.420654,49.612919 
	C810.055725,49.231339 811.690796,48.849754 813.814392,48.354160 
	C817.013733,40.807766 820.429993,32.749763 823.393372,25.760031 
	C824.358215,22.409077 816.948792,23.414066 822.027466,19.598560 
z"/>
<path fill="#020202" opacity="1.000000" stroke="none" 
	d="
M688.993896,413.985840 
	C669.373291,413.985840 650.251038,413.985840 630.192139,413.985840 
	C642.776245,385.671509 655.113037,357.913635 668.044922,328.816803 
	C680.229431,357.722595 691.910461,385.434052 703.945740,413.985840 
	C698.614990,413.985840 694.053650,413.985840 688.993896,413.985840 
z"/>
<path fill="#0D0D0D" opacity="1.000000" stroke="none" 
	d="
M735.259521,12.827061 
	C736.267395,15.680451 737.136719,18.171143 738.117676,20.981882 
	C735.240112,20.981882 732.709045,20.981882 729.668579,20.981882 
	C731.045227,17.654678 732.230103,14.767781 733.498962,11.918300 
	C733.520752,11.869275 734.557678,12.272282 735.259521,12.827061 
z"/>
<path fill="#010101" opacity="1.000000" stroke="none" 
	d="
M847.919373,47.918606 
	C847.927673,47.196564 848.161499,46.665508 848.706055,45.428528 
	C848.787476,46.767876 848.822449,47.343754 848.732727,48.198326 
	C848.453674,48.354546 848.299316,48.232071 847.919373,47.918606 
z"/>
<path fill="#080808" opacity="1.000000" stroke="none" 
	d="
M694.417358,8.057292 
	C698.611267,9.262919 700.058289,12.550485 698.737183,15.452499 
	C697.538391,18.086037 694.268311,19.776703 691.911377,21.883038 
	C691.403503,21.532993 690.895630,21.182951 690.387756,20.832907 
	C689.827759,16.740454 689.267700,12.648001 688.633362,8.013063 
	C690.779419,8.013063 692.386536,8.013063 694.417358,8.057292 
z"/>
<path fill="#0D0D0D" opacity="1.000000" stroke="none" 
	d="
M534.096130,96.712631 
	C538.214600,90.299911 542.771973,89.653313 545.976868,94.739464 
	C548.419312,98.615585 545.677307,101.241379 543.296387,104.621201 
	C540.223328,102.024529 537.260010,99.520592 534.096130,96.712631 
z"/>
<path fill="#050505" opacity="1.000000" stroke="none" 
	d="
M549.390259,396.268005 
	C553.757202,401.671936 553.938721,404.869080 549.973328,409.809387 
	C546.618286,413.989319 542.816650,417.765930 537.003845,418.161530 
	C530.318665,418.616577 526.426880,413.507233 528.524414,407.170502 
	C531.474304,398.258667 541.622986,392.756287 549.390259,396.268005 
z"/>
<path fill="#131313" opacity="1.000000" stroke="none" 
	d="
M491.111572,243.181091 
	C490.381653,244.044022 489.454285,245.036423 489.006561,244.853683 
	C486.288788,243.744415 483.680420,242.367279 480.079071,240.613968 
	C484.342010,239.295288 487.641632,238.274582 491.515900,237.076141 
	C491.369995,239.261322 491.252930,241.014404 491.111572,243.181091 
z"/>
</svg>