<svg version="1.1" id="Layer_1" xmlns="http://www.w3.org/2000/svg" xmlns:xlink="http://www.w3.org/1999/xlink" x="0px" y="0px"
	 width="100%" viewBox="0 0 1200 1200" enable-background="new 0 0 1200 1200" xml:space="preserve">
<path fill="#E7E7E7" opacity="1.000000" stroke="none" 
	d="
M1201.000000,893.000000 
	C1201.000000,995.657898 1201.000000,1098.315796 1201.000000,1200.980225 
	C801.042786,1200.986816 401.085571,1200.986816 1.064177,1200.986816 
	C1.064177,801.076843 1.064177,401.153656 1.064177,1.115246 
	C400.889099,1.115246 800.778198,1.115246 1201.000000,1.115246 
	C1201.000000,288.697510 1201.000000,576.395142 1200.633667,864.460388 
	C1195.412598,863.118103 1190.422852,861.715332 1185.724243,859.650085 
	C1144.022339,841.320435 1107.632935,814.972412 1076.051758,782.625061 
	C1001.544434,706.310303 927.936584,629.117188 853.970276,552.274231 
	C849.956238,548.104065 845.991150,543.886841 842.018799,539.707825 
	C889.139832,481.531738 936.003967,423.685486 982.852478,365.826538 
	C1000.557007,343.961121 1021.815125,326.730103 1048.108276,316.237061 
	C1072.435425,306.528656 1097.911255,301.898590 1123.930054,300.057465 
	C1134.497192,299.309662 1145.095459,299.001434 1155.696411,298.492371 
	C1155.696411,287.529938 1155.696411,276.922028 1155.696411,266.023743 
	C1154.546631,265.951691 1153.591187,265.838409 1152.635864,265.839752 
	C1130.136597,265.871368 1107.635254,265.730133 1085.138672,266.002411 
	C1054.860352,266.368866 1026.701782,274.218811 1001.042786,290.591156 
	C972.925842,308.531982 949.301636,331.380676 928.492554,357.220947 
	C873.130005,425.968781 817.904907,494.827393 762.611755,563.631165 
	C761.660034,564.815430 760.539551,565.864075 758.935059,567.576660 
	C758.935059,564.807983 758.935669,563.005859 758.934875,561.203735 
	C758.909241,500.871033 759.053833,440.537506 758.766907,380.206055 
	C758.663940,358.544861 757.133423,336.932098 751.034729,315.938690 
	C745.349670,296.368958 735.132324,280.470551 715.306396,272.578827 
	C703.884094,268.032166 691.907532,266.064941 679.675354,266.018005 
	C640.509888,265.867737 601.343872,265.879425 562.178040,265.847961 
	C561.247864,265.847229 560.317505,266.074554 559.437622,266.188934 
	C559.437622,275.641937 559.437622,284.728333 559.437622,294.389374 
	C565.020569,294.389374 570.338135,294.165039 575.631836,294.426270 
	C606.929443,295.970612 623.184998,309.716766 630.106873,339.979584 
	C633.921692,356.658478 634.933167,373.565613 634.966248,390.583038 
	C635.286194,555.081238 635.597778,719.579468 635.911316,884.077698 
	C635.914734,885.859253 635.911743,887.640869 635.911743,889.526245 
	C677.154846,889.526245 717.879517,889.526245 759.208801,889.526245 
	C759.208801,802.093018 759.208801,714.969727 759.208801,627.096741 
	C806.218201,676.165771 852.600891,724.501404 898.888245,772.928101 
	C923.662537,798.847534 948.990540,824.108704 977.963867,845.476868 
	C1026.776001,881.476196 1081.638184,898.573120 1142.034424,899.046692 
	C1161.940796,899.202698 1181.552856,897.043396 1201.000000,893.000000 
M495.990936,1097.487305 
	C544.854858,1096.137817 583.696411,1067.596924 599.999390,1020.439697 
	C622.184082,949.349426 570.281006,878.341064 494.277008,877.029236 
	C490.983002,877.345825 487.695312,877.774353 484.393951,877.959900 
	C468.999420,878.825134 454.762360,883.620239 441.462067,891.105896 
	C418.973053,903.763062 402.613312,921.947510 392.962433,946.040161 
	C383.139587,970.562073 382.301788,995.350769 389.975403,1020.602234 
	C394.865082,1036.692749 403.399445,1050.643799 414.629364,1062.872192 
	C419.251282,1067.905029 425.276428,1071.649292 430.865784,1076.672241 
	C450.022949,1090.700806 471.479675,1097.548706 495.990936,1097.487305 
M99.240364,317.696289 
	C109.345764,315.103668 119.363350,310.761322 129.573151,310.248932 
	C159.328690,308.755646 189.161057,308.792114 218.963730,308.251862 
	C219.239929,308.246857 219.521851,308.556580 220.266968,308.990875 
	C220.266968,502.280884 220.266968,695.836426 220.266968,889.521667 
	C261.460480,889.521667 302.183594,889.521667 343.372192,889.521667 
	C343.372192,695.646790 343.372192,502.087311 343.372192,308.059326 
	C409.402588,308.059326 474.968292,308.059326 540.680481,308.059326 
	C540.680481,293.835724 540.680481,280.082245 540.680481,265.831299 
	C538.854980,265.831299 537.238831,265.831329 535.622742,265.831329 
	C389.974335,265.831421 244.325912,265.792877 98.677628,265.925446 
	C89.731972,265.933563 80.704964,266.756836 71.857399,268.119934 
	C40.040787,273.021729 18.554296,295.817169 17.194519,328.018738 
	C15.901984,358.627899 16.439556,389.314392 16.186172,419.966980 
	C16.183613,420.276428 16.367447,420.587433 16.538656,421.136108 
	C25.668884,421.136108 34.866272,421.136108 44.286854,421.136108 
	C44.461498,417.468750 44.347992,414.120117 44.824245,410.857605 
	C46.741085,397.726440 47.759048,384.339020 51.100071,371.567139 
	C57.784119,346.015625 74.091309,328.201935 99.240364,317.696289 
M387.251343,1135.261841 
	C384.644043,1135.261841 382.036713,1135.261841 379.561005,1135.261841 
	C377.484344,1147.722046 380.214783,1150.369995 390.932892,1146.742310 
	C390.932892,1144.031982 391.197723,1141.175293 390.806000,1138.411499 
	C390.643250,1137.263428 389.078735,1136.313843 387.251343,1135.261841 
M439.918701,1137.858276 
	C439.918701,1140.954956 439.918701,1144.051636 439.918701,1147.365723 
	C444.083466,1147.365723 447.801666,1147.365723 451.714905,1147.365723 
	C451.714905,1143.415649 451.714905,1139.707520 451.714905,1134.999634 
	C447.556000,1135.688232 443.749420,1136.318604 439.918701,1137.858276 
M500.947205,1142.435791 
	C501.027649,1144.034302 501.108093,1145.632935 501.189758,1147.256104 
	C505.301880,1147.256104 509.010010,1147.256104 512.753052,1147.256104 
	C512.753052,1143.267334 512.753052,1139.659180 512.753052,1135.821045 
	C508.787903,1135.821045 505.038513,1135.821045 500.947144,1135.821045 
	C500.947144,1137.896240 500.947144,1139.706055 500.947205,1142.435791 
M573.620667,1137.027100 
	C571.897278,1136.683105 570.179688,1136.080444 568.449402,1136.041138 
	C561.959534,1135.893921 562.250061,1135.978516 561.899475,1142.562012 
	C561.657166,1147.113037 563.309326,1148.291504 567.602234,1148.083008 
	C574.006348,1147.772095 574.022949,1148.023071 573.995789,1141.376831 
	C573.991089,1140.213867 573.932068,1139.051147 573.620667,1137.027100 
z"/>
<path fill="#010101" opacity="1.000000" stroke="none" 
	d="
M1201.000000,892.531372 
	C1181.552856,897.043396 1161.940796,899.202698 1142.034424,899.046692 
	C1081.638184,898.573120 1026.776001,881.476196 977.963867,845.476868 
	C948.990540,824.108704 923.662537,798.847534 898.888245,772.928101 
	C852.600891,724.501404 806.218201,676.165771 759.208801,627.096741 
	C759.208801,714.969727 759.208801,802.093018 759.208801,889.526245 
	C717.879517,889.526245 677.154846,889.526245 635.911743,889.526245 
	C635.911743,887.640869 635.914734,885.859253 635.911316,884.077698 
	C635.597778,719.579468 635.286194,555.081238 634.966248,390.583038 
	C634.933167,373.565613 633.921692,356.658478 630.106873,339.979584 
	C623.184998,309.716766 606.929443,295.970612 575.631836,294.426270 
	C570.338135,294.165039 565.020569,294.389374 559.437622,294.389374 
	C559.437622,284.728333 559.437622,275.641937 559.437622,266.188934 
	C560.317505,266.074554 561.247864,265.847229 562.178040,265.847961 
	C601.343872,265.879425 640.509888,265.867737 679.675354,266.018005 
	C691.907532,266.064941 703.884094,268.032166 715.306396,272.578827 
	C735.132324,280.470551 745.349670,296.368958 751.034729,315.938690 
	C757.133423,336.932098 758.663940,358.544861 758.766907,380.206055 
	C759.053833,440.537506 758.909241,500.871033 758.934875,561.203735 
	C758.935669,563.005859 758.935059,564.807983 758.935059,567.576660 
	C760.539551,565.864075 761.660034,564.815430 762.611755,563.631165 
	C817.904907,494.827393 873.130005,425.968781 928.492554,357.220947 
	C949.301636,331.380676 972.925842,308.531982 1001.042786,290.591156 
	C1026.701782,274.218811 1054.860352,266.368866 1085.138672,266.002411 
	C1107.635254,265.730133 1130.136597,265.871368 1152.635864,265.839752 
	C1153.591187,265.838409 1154.546631,265.951691 1155.696411,266.023743 
	C1155.696411,276.922028 1155.696411,287.529938 1155.696411,298.492371 
	C1145.095459,299.001434 1134.497192,299.309662 1123.930054,300.057465 
	C1097.911255,301.898590 1072.435425,306.528656 1048.108276,316.237061 
	C1021.815125,326.730103 1000.557007,343.961121 982.852478,365.826538 
	C936.003967,423.685486 889.139832,481.531738 842.018799,539.707825 
	C845.991150,543.886841 849.956238,548.104065 853.970276,552.274231 
	C927.936584,629.117188 1001.544434,706.310303 1076.051758,782.625061 
	C1107.632935,814.972412 1144.022339,841.320435 1185.724243,859.650085 
	C1190.422852,861.715332 1195.412598,863.118103 1200.633667,864.914001 
	C1201.000000,874.020874 1201.000000,883.041809 1201.000000,892.531372 
z"/>
<path fill="#010101" opacity="1.000000" stroke="none" 
	d="
M98.877213,317.821289 
	C74.091309,328.201935 57.784119,346.015625 51.100071,371.567139 
	C47.759048,384.339020 46.741085,397.726440 44.824245,410.857605 
	C44.347992,414.120117 44.461498,417.468750 44.286854,421.136108 
	C34.866272,421.136108 25.668884,421.136108 16.538656,421.136108 
	C16.367447,420.587433 16.183613,420.276428 16.186172,419.966980 
	C16.439556,389.314392 15.901984,358.627899 17.194519,328.018738 
	C18.554296,295.817169 40.040787,273.021729 71.857399,268.119934 
	C80.704964,266.756836 89.731972,265.933563 98.677628,265.925446 
	C244.325912,265.792877 389.974335,265.831421 535.622742,265.831329 
	C537.238831,265.831329 538.854980,265.831299 540.680481,265.831299 
	C540.680481,280.082245 540.680481,293.835724 540.680481,308.059326 
	C474.968292,308.059326 409.402588,308.059326 343.372192,308.059326 
	C343.372192,502.087311 343.372192,695.646790 343.372192,889.521667 
	C302.183594,889.521667 261.460480,889.521667 220.266968,889.521667 
	C220.266968,695.836426 220.266968,502.280884 220.266968,308.990875 
	C219.521851,308.556580 219.239929,308.246857 218.963730,308.251862 
	C189.161057,308.792114 159.328690,308.755646 129.573151,310.248932 
	C119.363350,310.761322 109.345764,315.103668 98.877213,317.821289 
z"/>
<path fill="#F3F3F3" opacity="1.000000" stroke="none" 
	d="
M430.663269,1075.979614 
	C425.276428,1071.649292 419.251282,1067.905029 414.629364,1062.872192 
	C403.399445,1050.643799 394.865082,1036.692749 389.975403,1020.602234 
	C382.301788,995.350769 383.139587,970.562073 392.962433,946.040161 
	C402.613312,921.947510 418.973053,903.763062 441.462067,891.105896 
	C454.762360,883.620239 468.999420,878.825134 484.393951,877.959900 
	C487.695312,877.774353 490.983002,877.345825 494.676270,877.506592 
	C495.034149,914.631836 494.992767,951.279663 494.797241,988.172241 
	C494.397644,988.938354 494.152283,989.459778 493.576355,990.053589 
	C492.833252,990.646362 492.401398,991.152710 492.010925,991.689209 
	C471.559418,1019.784363 451.111572,1047.882080 430.663269,1075.979614 
z"/>
<path fill="#939393" opacity="1.000000" stroke="none" 
	d="
M494.951416,987.927551 
	C494.992767,951.279663 495.034149,914.631836 495.137512,877.523743 
	C570.281006,878.341064 622.184082,949.349426 599.511963,1020.780945 
	C577.590820,1014.205139 556.170471,1007.246338 534.718506,1000.386414 
	C521.487793,996.155518 508.208771,992.075378 494.951416,987.927551 
z"/>
<path fill="#040404" opacity="1.000000" stroke="none" 
	d="
M494.797241,988.172241 
	C508.208771,992.075378 521.487793,996.155518 534.718506,1000.386414 
	C556.170471,1007.246338 577.590820,1014.205139 599.403442,1021.171448 
	C583.696411,1067.596924 544.854858,1096.137817 495.533203,1096.966797 
	C495.049438,1062.817139 495.040619,1029.187866 494.950928,995.558655 
	C494.945953,993.698547 494.270355,991.840332 493.906921,989.981201 
	C494.152283,989.459778 494.397644,988.938354 494.797241,988.172241 
z"/>
<path fill="#454545" opacity="1.000000" stroke="none" 
	d="
M493.576355,990.053589 
	C494.270355,991.840332 494.945953,993.698547 494.950928,995.558655 
	C495.040619,1029.187866 495.049438,1062.817139 495.145508,1096.862915 
	C471.479675,1097.548706 450.022949,1090.700806 430.764526,1076.325928 
	C451.111572,1047.882080 471.559418,1019.784363 492.010925,991.689209 
	C492.401398,991.152710 492.833252,990.646362 493.576355,990.053589 
z"/>
<path fill="#989898" opacity="1.000000" stroke="none" 
	d="
M387.701508,1135.267944 
	C389.078735,1136.313843 390.643250,1137.263428 390.806000,1138.411499 
	C391.197723,1141.175293 390.932892,1144.031982 390.932892,1146.742310 
	C380.214783,1150.369995 377.484344,1147.722046 379.561005,1135.261841 
	C382.036713,1135.261841 384.644043,1135.261841 387.701508,1135.267944 
z"/>
<path fill="#0F0F0F" opacity="1.000000" stroke="none" 
	d="
M439.930786,1137.403564 
	C443.749420,1136.318604 447.556000,1135.688232 451.714905,1134.999634 
	C451.714905,1139.707520 451.714905,1143.415649 451.714905,1147.365723 
	C447.801666,1147.365723 444.083466,1147.365723 439.918701,1147.365723 
	C439.918701,1144.051636 439.918701,1140.954956 439.930786,1137.403564 
z"/>
<path fill="#4C4C4C" opacity="1.000000" stroke="none" 
	d="
M500.947174,1141.975830 
	C500.947144,1139.706055 500.947144,1137.896240 500.947144,1135.821045 
	C505.038513,1135.821045 508.787903,1135.821045 512.753052,1135.821045 
	C512.753052,1139.659180 512.753052,1143.267334 512.753052,1147.256104 
	C509.010010,1147.256104 505.301880,1147.256104 501.189758,1147.256104 
	C501.108093,1145.632935 501.027649,1144.034302 500.947174,1141.975830 
z"/>
<path fill="#F3F3F3" opacity="1.000000" stroke="none" 
	d="
M573.759399,1137.457764 
	C573.932068,1139.051147 573.991089,1140.213867 573.995789,1141.376831 
	C574.022949,1148.023071 574.006348,1147.772095 567.602234,1148.083008 
	C563.309326,1148.291504 561.657166,1147.113037 561.899475,1142.562012 
	C562.250061,1135.978516 561.959534,1135.893921 568.449402,1136.041138 
	C570.179688,1136.080444 571.897278,1136.683105 573.759399,1137.457764 
z"/>
</svg>