<svg version="1.1" id="Layer_1" xmlns="http://www.w3.org/2000/svg" xmlns:xlink="http://www.w3.org/1999/xlink" x="0px" y="0px"
	 width="100%" viewBox="0 0 1200 1200" enable-background="new 0 0 1200 1200" xml:space="preserve">
<path fill="#000000" opacity="1.000000" stroke="none" 
	d="
M1201.000000,894.000000 
	C1201.000000,996.324646 1201.000000,1098.649292 1201.000000,1200.980469 
	C801.042786,1200.986938 401.085571,1200.986938 1.064179,1200.986938 
	C1.064179,801.076843 1.064179,401.153717 1.064179,1.115285 
	C400.889038,1.115285 800.778137,1.115285 1201.000000,1.115285 
	C1201.000000,288.364166 1201.000000,575.728455 1200.610229,863.519836 
	C1194.007690,861.709106 1187.571533,859.945679 1181.624023,857.144592 
	C1163.815186,848.756958 1146.773315,839.052429 1130.778687,827.446899 
	C1109.613892,812.090149 1089.180176,796.026489 1071.321655,776.745239 
	C1053.710815,757.731445 1035.406006,739.360718 1017.423401,720.690857 
	C1009.473694,712.437378 1001.588806,704.121582 993.637146,695.870056 
	C976.007751,677.575928 958.347900,659.311157 940.714417,641.020935 
	C932.873047,632.887512 925.083984,624.703735 917.239197,616.573669 
	C899.359924,598.044250 881.487183,579.508301 863.554688,561.030457 
	C857.752319,555.051636 851.829163,549.186584 845.845215,543.389343 
	C843.481934,541.099792 843.294373,538.872437 845.276184,536.421753 
	C854.103638,525.505554 862.953125,514.607178 871.814819,503.718719 
	C882.865112,490.141113 893.958679,476.598663 904.990479,463.006012 
	C916.961975,448.255585 928.884888,433.465759 940.827148,418.691559 
	C950.372253,406.882874 959.917969,395.074677 969.457336,383.261353 
	C981.962219,367.775482 994.498413,352.335907 1009.963318,339.576324 
	C1027.242798,325.319580 1046.992310,316.081512 1068.394897,309.935730 
	C1095.539062,302.141266 1123.399414,300.001892 1151.416260,299.057281 
	C1154.877686,298.940552 1156.105713,297.799469 1156.038208,294.368652 
	C1155.877808,286.205200 1155.857178,278.033356 1156.049316,269.871216 
	C1156.135498,266.208282 1154.866455,264.864716 1151.158936,264.948761 
	C1123.240234,265.582001 1095.293335,263.803192 1067.392822,266.845428 
	C1049.545044,268.791534 1032.640259,273.565491 1016.544312,281.215271 
	C992.652344,292.570129 972.841980,309.646423 953.927246,327.681091 
	C945.203491,335.998993 937.581238,345.512665 929.805969,354.774933 
	C919.385010,367.188873 909.237610,379.834747 899.087158,392.472839 
	C887.406311,407.016418 875.908203,421.706757 864.223694,436.247314 
	C852.630432,450.674377 840.860779,464.959595 829.249695,479.372498 
	C820.232971,490.565125 811.349548,501.865082 802.391907,513.105408 
	C792.095459,526.025696 781.811096,538.955872 771.461609,551.833618 
	C767.736206,556.468994 763.836792,560.964478 760.016724,565.523743 
	C758.999817,563.258728 759.006836,561.606079 758.998779,559.953552 
	C758.667847,491.828400 758.496704,423.701813 757.893005,355.579071 
	C757.736816,337.960266 754.386719,320.630737 747.644165,304.300964 
	C741.514771,289.456055 731.152283,278.080994 715.927246,271.998016 
	C703.482605,267.025879 690.201477,265.348663 677.016113,265.182373 
	C639.188843,264.705353 601.351746,265.040680 563.518738,264.950195 
	C559.963379,264.941681 558.886841,266.337128 558.965210,269.690887 
	C559.124756,276.520416 559.164185,283.361145 558.950378,290.187744 
	C558.833496,293.919067 560.282532,294.945038 563.892273,295.098145 
	C572.817200,295.476715 581.876953,295.533325 590.599060,297.201477 
	C605.691528,300.088013 617.437561,308.196320 623.807007,322.753662 
	C630.195740,337.355133 632.971741,352.893616 633.822815,368.610870 
	C634.837585,387.351379 634.944824,406.156281 634.954773,424.933563 
	C635.035400,577.766113 635.001099,730.598755 635.002747,883.431335 
	C635.002869,889.963196 635.007080,889.991638 641.596069,889.995056 
	C666.596008,890.008057 691.595947,890.002197 716.595886,890.001099 
	C729.095825,890.000549 741.596985,889.899658 754.095032,890.051147 
	C757.727356,890.095093 759.374451,888.920349 759.019470,885.183472 
	C758.846863,883.366882 758.999146,881.519653 758.999207,879.686340 
	C758.999756,798.186523 758.997437,716.686768 759.014099,635.186951 
	C759.014526,633.190735 759.226318,631.194519 759.339600,629.198303 
	C762.413879,631.238586 764.064331,633.703735 766.082703,635.817566 
	C781.459106,651.920227 796.918640,667.943359 812.330078,684.012634 
	C827.503540,699.833801 842.652039,715.678894 857.809326,731.515564 
	C873.085205,747.476074 888.074524,763.723511 903.705383,779.328369 
	C922.717773,798.308899 941.486816,817.544189 962.615540,834.329407 
	C985.371582,852.407288 1009.222412,868.404236 1036.376831,879.240051 
	C1060.682983,888.939270 1085.765625,895.634705 1111.775635,897.753723 
	C1129.811279,899.223022 1148.012695,898.664246 1166.140869,898.967834 
	C1167.450439,898.989746 1168.768433,898.668884 1170.078491,898.479675 
	C1180.386108,896.990295 1190.692993,895.494080 1201.000000,894.000000 
M343.999878,335.500000 
	C344.000488,328.833893 343.985413,322.167694 344.006226,315.501648 
	C344.026337,309.045197 344.042542,309.043182 350.723572,309.014465 
	C352.723480,309.005859 354.723480,309.011963 356.723419,309.011932 
	C415.888519,309.011444 475.053589,309.013885 534.218689,309.006714 
	C540.974304,309.005890 540.989380,308.980896 540.997375,302.093353 
	C541.009521,291.593628 540.813232,281.089111 541.085388,270.596466 
	C541.199158,266.211273 539.801819,264.405212 535.401489,264.958954 
	C533.760986,265.165405 532.072449,264.988312 530.405823,264.988312 
	C387.742981,264.988098 245.080048,264.919617 102.417480,265.120544 
	C91.219566,265.136292 79.940773,266.484436 68.847778,268.181915 
	C53.025909,270.603027 39.668007,278.331360 29.744427,290.825043 
	C20.524534,302.432800 16.580215,316.589417 16.227982,331.076782 
	C15.527382,359.892334 16.043962,388.736816 15.971496,417.569153 
	C15.963596,420.711517 16.968576,422.104889 20.273441,422.030823 
	C27.103092,421.877747 33.941105,421.874023 40.770554,422.031311 
	C44.120560,422.108459 45.029770,420.630371 45.030586,417.529114 
	C45.034569,402.394104 46.977741,387.510345 51.041553,372.904327 
	C56.130501,354.613800 65.910110,339.511566 81.295059,328.244446 
	C99.614197,314.828430 120.867462,310.022522 142.884979,309.206543 
	C166.684845,308.324493 190.543625,309.107819 214.374969,308.929993 
	C218.736038,308.897430 220.557877,310.189819 220.035095,314.605347 
	C219.801590,316.577454 220.000015,318.600525 220.000015,320.600464 
	C220.000244,482.262817 219.999939,643.925171 220.000473,805.587524 
	C220.000565,831.920166 220.072678,858.253113 219.934479,884.585022 
	C219.913162,888.644653 221.107941,890.084900 225.303085,890.070557 
	C263.134949,889.941101 300.967529,889.957275 338.799591,890.052063 
	C342.567474,890.061462 344.470001,889.045105 344.028442,884.981201 
	C343.813690,883.004944 343.999451,880.985413 343.999451,878.985474 
	C343.999847,698.156982 343.999847,517.328491 343.999878,335.500000 
z"/>
<path fill="#444444" opacity="1.000000" stroke="none" 
	d="
M1201.000000,893.531372 
	C1190.692993,895.494080 1180.386108,896.990295 1170.078491,898.479675 
	C1168.768433,898.668884 1167.450439,898.989746 1166.140869,898.967834 
	C1148.012695,898.664246 1129.811279,899.223022 1111.775635,897.753723 
	C1085.765625,895.634705 1060.682983,888.939270 1036.376831,879.240051 
	C1009.222412,868.404236 985.371582,852.407288 962.615540,834.329407 
	C941.486816,817.544189 922.717773,798.308899 903.705383,779.328369 
	C888.074524,763.723511 873.085205,747.476074 857.809326,731.515564 
	C842.652039,715.678894 827.503540,699.833801 812.330078,684.012634 
	C796.918640,667.943359 781.459106,651.920227 766.082703,635.817566 
	C764.064331,633.703735 762.413879,631.238586 759.339600,629.198303 
	C759.226318,631.194519 759.014526,633.190735 759.014099,635.186951 
	C758.997437,716.686768 758.999756,798.186523 758.999207,879.686340 
	C758.999146,881.519653 758.846863,883.366882 759.019470,885.183472 
	C759.374451,888.920349 757.727356,890.095093 754.095032,890.051147 
	C741.596985,889.899658 729.095825,890.000549 716.595886,890.001099 
	C691.595947,890.002197 666.596008,890.008057 641.596069,889.995056 
	C635.007080,889.991638 635.002869,889.963196 635.002747,883.431335 
	C635.001099,730.598755 635.035400,577.766113 634.954773,424.933563 
	C634.944824,406.156281 634.837585,387.351379 633.822815,368.610870 
	C632.971741,352.893616 630.195740,337.355133 623.807007,322.753662 
	C617.437561,308.196320 605.691528,300.088013 590.599060,297.201477 
	C581.876953,295.533325 572.817200,295.476715 563.892273,295.098145 
	C560.282532,294.945038 558.833496,293.919067 558.950378,290.187744 
	C559.164185,283.361145 559.124756,276.520416 558.965210,269.690887 
	C558.886841,266.337128 559.963379,264.941681 563.518738,264.950195 
	C601.351746,265.040680 639.188843,264.705353 677.016113,265.182373 
	C690.201477,265.348663 703.482605,267.025879 715.927246,271.998016 
	C731.152283,278.080994 741.514771,289.456055 747.644165,304.300964 
	C754.386719,320.630737 757.736816,337.960266 757.893005,355.579071 
	C758.496704,423.701813 758.667847,491.828400 758.998779,559.953552 
	C759.006836,561.606079 758.999817,563.258728 760.016724,565.523743 
	C763.836792,560.964478 767.736206,556.468994 771.461609,551.833618 
	C781.811096,538.955872 792.095459,526.025696 802.391907,513.105408 
	C811.349548,501.865082 820.232971,490.565125 829.249695,479.372498 
	C840.860779,464.959595 852.630432,450.674377 864.223694,436.247314 
	C875.908203,421.706757 887.406311,407.016418 899.087158,392.472839 
	C909.237610,379.834747 919.385010,367.188873 929.805969,354.774933 
	C937.581238,345.512665 945.203491,335.998993 953.927246,327.681091 
	C972.841980,309.646423 992.652344,292.570129 1016.544312,281.215271 
	C1032.640259,273.565491 1049.545044,268.791534 1067.392822,266.845428 
	C1095.293335,263.803192 1123.240234,265.582001 1151.158936,264.948761 
	C1154.866455,264.864716 1156.135498,266.208282 1156.049316,269.871216 
	C1155.857178,278.033356 1155.877808,286.205200 1156.038208,294.368652 
	C1156.105713,297.799469 1154.877686,298.940552 1151.416260,299.057281 
	C1123.399414,300.001892 1095.539062,302.141266 1068.394897,309.935730 
	C1046.992310,316.081512 1027.242798,325.319580 1009.963318,339.576324 
	C994.498413,352.335907 981.962219,367.775482 969.457336,383.261353 
	C959.917969,395.074677 950.372253,406.882874 940.827148,418.691559 
	C928.884888,433.465759 916.961975,448.255585 904.990479,463.006012 
	C893.958679,476.598663 882.865112,490.141113 871.814819,503.718719 
	C862.953125,514.607178 854.103638,525.505554 845.276184,536.421753 
	C843.294373,538.872437 843.481934,541.099792 845.845215,543.389343 
	C851.829163,549.186584 857.752319,555.051636 863.554688,561.030457 
	C881.487183,579.508301 899.359924,598.044250 917.239197,616.573669 
	C925.083984,624.703735 932.873047,632.887512 940.714417,641.020935 
	C958.347900,659.311157 976.007751,677.575928 993.637146,695.870056 
	C1001.588806,704.121582 1009.473694,712.437378 1017.423401,720.690857 
	C1035.406006,739.360718 1053.710815,757.731445 1071.321655,776.745239 
	C1089.180176,796.026489 1109.613892,812.090149 1130.778687,827.446899 
	C1146.773315,839.052429 1163.815186,848.756958 1181.624023,857.144592 
	C1187.571533,859.945679 1194.007690,861.709106 1200.610229,863.973450 
	C1201.000000,873.687561 1201.000000,883.375122 1201.000000,893.531372 
z"/>
<path fill="#444444" opacity="1.000000" stroke="none" 
	d="
M343.999878,336.000000 
	C343.999847,517.328491 343.999847,698.156982 343.999451,878.985474 
	C343.999451,880.985413 343.813690,883.004944 344.028442,884.981201 
	C344.470001,889.045105 342.567474,890.061462 338.799591,890.052063 
	C300.967529,889.957275 263.134949,889.941101 225.303085,890.070557 
	C221.107941,890.084900 219.913162,888.644653 219.934479,884.585022 
	C220.072678,858.253113 220.000565,831.920166 220.000473,805.587524 
	C219.999939,643.925171 220.000244,482.262817 220.000015,320.600464 
	C220.000015,318.600525 219.801590,316.577454 220.035095,314.605347 
	C220.557877,310.189819 218.736038,308.897430 214.374969,308.929993 
	C190.543625,309.107819 166.684845,308.324493 142.884979,309.206543 
	C120.867462,310.022522 99.614197,314.828430 81.295059,328.244446 
	C65.910110,339.511566 56.130501,354.613800 51.041553,372.904327 
	C46.977741,387.510345 45.034569,402.394104 45.030586,417.529114 
	C45.029770,420.630371 44.120560,422.108459 40.770554,422.031311 
	C33.941105,421.874023 27.103092,421.877747 20.273441,422.030823 
	C16.968576,422.104889 15.963596,420.711517 15.971496,417.569153 
	C16.043962,388.736816 15.527382,359.892334 16.227982,331.076782 
	C16.580215,316.589417 20.524534,302.432800 29.744427,290.825043 
	C39.668007,278.331360 53.025909,270.603027 68.847778,268.181915 
	C79.940773,266.484436 91.219566,265.136292 102.417480,265.120544 
	C245.080048,264.919617 387.742981,264.988098 530.405823,264.988312 
	C532.072449,264.988312 533.760986,265.165405 535.401489,264.958954 
	C539.801819,264.405212 541.199158,266.211273 541.085388,270.596466 
	C540.813232,281.089111 541.009521,291.593628 540.997375,302.093353 
	C540.989380,308.980896 540.974304,309.005890 534.218689,309.006714 
	C475.053589,309.013885 415.888519,309.011444 356.723419,309.011932 
	C354.723480,309.011963 352.723480,309.005859 350.723572,309.014465 
	C344.042542,309.043182 344.026337,309.045197 344.006226,315.501648 
	C343.985413,322.167694 344.000488,328.833893 343.999878,336.000000 
z"/>
</svg>